<?xml version="1.0" encoding="UTF-8" standalone="no"?>
<svg
   xmlns="http://www.w3.org/2000/svg"
   viewBox="2146 2086 286 286"
   height="128"
   width="128"
   xml:space="preserve"
   id="svg2"
   version="1.1"><g
     transform="matrix(1.3333333,0,0,-1.3333333,0,2666.6667)"
     id="g10"><g
       transform="scale(0.1)"
       id="g12"><g
         transform="scale(1.08831)"
         id="g26"><path
           id="path28"
           style="fill:black;fill-opacity:1;fill-rule:nonzero;stroke:none"
           d="m 16271.8,3731 c -86.8,-303.86 -191,-696.76 -41.3,-991.9 39.1,-75.99 69.5,-138.93 49.9,-247.44 l -34.7,-277.78 c -4.3,-41.25 -36.9,-56.5 -71.6,-56.5 h -149.8 c -30.4,0 -56.4,19.57 -62.9,47.78 l -41.3,119.36 c -136.7,-134.52 -347.3,-175.78 -533.9,-164.94 -260.4,15.16 -303.9,290.82 -45.6,369.01 71.7,19.48 147.6,23.8 214.9,69.38 160.6,112.92 184.5,314.8 173.6,494.89 -10.8,203.99 -60.7,462.28 -132.4,633.73 -15.1,39.15 -8.6,80.31 34.7,95.56 188.9,71.58 418.9,78.11 603.5,-6.52 34.7,-17.37 47.7,-47.78 36.9,-84.63 v 0" /></g><g
         transform="scale(1.07889)"
         id="g30"><path
           id="path32"
           style="fill:#ffffff;fill-opacity:1;fill-rule:nonzero;stroke:none"
           d="m 16249.7,3634.39 c -111.7,21.87 -227.8,19.74 -339.4,0 l 28.5,-113.83 c 43.7,6.59 89.7,13.07 135.7,10.94 15.4,0 26.3,-13.16 26.3,-28.46 0,-15.38 -13.1,-26.32 -28.4,-26.32 -41.7,0 -81.1,-4.35 -122.7,-10.94 6.6,-35.03 13.2,-70.07 19.7,-105.1 37.2,4.45 74.5,8.8 111.7,8.8 13.1,0 26.3,-13.16 26.3,-28.45 0,-15.39 -13.2,-26.33 -26.3,-26.33 -35.1,0 -70.1,-4.35 -102.9,-8.71 4.3,-35.03 8.7,-72.29 10.9,-105.1 35.1,2.22 67.9,6.57 102.9,4.35 35,0 35,-54.68 -2.1,-54.68 -30.7,0 -63.5,-2.23 -96.4,-6.59 2.2,-32.81 4.3,-65.71 4.3,-100.75 28.6,2.22 57,4.45 85.5,4.45 35,0 35,-54.78 0,-54.78 -28.5,0 -56.9,-2.22 -85.5,-4.35 -2.1,-41.62 -6.5,-83.24 -15.3,-124.85 8.8,0 15.3,2.22 24.1,2.22 24.1,2.22 50.4,2.22 76.7,2.22 15.3,0 28.4,-10.93 28.4,-26.32 0,-15.29 -13.1,-28.45 -28.4,-28.45 -22,0 -48.2,0 -72.3,-2.14 -15.3,-2.22 -30.7,-4.45 -43.8,-4.45 -37.2,-113.81 -107.3,-223.28 -203.6,-291.13 -61.3,-41.61 -170.7,-61.36 -251.7,-85.46 -129.2,-43.75 -92,-118.18 8.7,-126.98 148.8,-15.29 341.5,26.33 446.6,129.21 87.6,89.81 208,140.14 332.8,153.3 -4.4,41.53 -21.9,78.79 -41.6,118.18 -146.7,291.23 -76.6,626.2 -8.7,930.5 v 0" /></g><g
         transform="scale(1.07744)"
         id="g34"><path
           id="path36"
           style="fill:#ffffff;fill-opacity:1;fill-rule:nonzero;stroke:none"
           d="m 15916.3,3691.89 c 120.6,21.91 245.6,24.14 368.4,0 4.3,24.14 10.9,46.04 15.3,63.58 -129.4,43.81 -276.2,41.67 -405.6,4.36 6.6,-21.9 15.3,-43.8 21.9,-67.94 v 0" /></g></g></g></svg>