<?xml version="1.0" encoding="UTF-8" standalone="no"?>
<svg
   xmlns="http://www.w3.org/2000/svg"
   viewBox="1307 2044 286 286"
   height="128"
   width="128"
   xml:space="preserve"
   id="svg2"
   version="1.1"><g
     transform="matrix(1.3333333,0,0,-1.3333333,0,2666.6667)"
     id="g10"><g
       transform="scale(0.1)"
       id="g12"><g
         transform="scale(1.08831)"
         id="g26"><path
         id="path64"
         style="fill:#2a2523;fill-opacity:1;fill-rule:nonzero;stroke:none"
         d="m 10062.6,2784.9 c 28.3,96.9 106.3,210.3 193.7,330.7 205.5,288.2 250.4,453.6 186.6,859.8 -7.1,56.7 21.3,92.2 77.9,92.2 l 181.9,-2.4 c 54.4,0 82.7,-30.7 80.3,-82.7 -11.8,-255.1 30.7,-510.2 96.9,-755.9 42.5,-165.3 111,-385 35.4,-550.3 -106.3,-231.5 -522,-198.4 -722.8,-113.4 -49.6,21.2 -92.1,49.6 -115.7,82.7 -52,0 -101.6,0 -153.57,0 -23.62,-33.1 -66.14,-61.5 -118.1,-82.7 -198.43,-85 -614.15,-118.1 -720.45,113.4 -75.59,165.3 -7.09,385 35.43,550.3 63.78,245.7 106.3,500.8 96.85,755.9 -2.36,52 25.98,82.7 80.31,82.7 l 181.89,2.4 c 56.68,0 85.03,-35.5 77.94,-92.2 -63.77,-406.2 -18.89,-571.6 186.61,-859.8 87.4,-120.4 165.35,-233.8 193.69,-330.7 42.52,0 82.7,0 125.2,0 v 0" /><path
         id="path66"
         style="fill:#ffffff;fill-opacity:1;fill-rule:nonzero;stroke:none"
         d="m 10246.8,2690.4 c 125.2,-51.9 465.4,-101.5 538.6,37.8 66.1,122.9 -7.1,340.2 -40.2,463 -63.7,238.6 -103.9,489 -101.5,737 h -54.4 c 49.7,-427.6 -7,-595.3 -219.6,-892.9 -61.4,-85 -238.6,-304.7 -122.9,-344.9 v 0" /><path
         id="path68"
         style="fill:#2a2523;fill-opacity:1;fill-rule:nonzero;stroke:none"
         d="m 10698,3177 c 18.9,-108.6 63.8,-226.7 52,-337.7 -14.2,-113.4 -99.2,-174.8 -366.2,-144.1 -16.5,2.3 -28.3,16.5 -25.9,33 2.3,16.6 16.5,28.4 33,26 222.1,-26 290.6,14.2 300,92.1 11.8,101.6 -33.1,217.4 -51.9,318.9 -7.1,44.9 51.9,54.4 59,11.8 v 0" /><path
         id="path70"
         style="fill:#ffffff;fill-opacity:1;fill-rule:nonzero;stroke:none"
         d="m 9753.16,2690.4 c -125.2,-51.9 -465.34,-101.5 -538.56,37.8 -66.14,122.9 7.08,340.2 40.15,463 63.78,238.6 103.94,489 101.57,737 h 54.33 c -49.61,-427.6 7.09,-595.3 219.68,-892.9 61.41,-85 238.57,-304.7 122.83,-344.9 v 0" /><path
         id="path72"
         style="fill:#2a2523;fill-opacity:1;fill-rule:nonzero;stroke:none"
         d="m 9302,3177 c -18.9,-108.6 -66.15,-226.7 -51.97,-337.7 14.17,-113.4 99.21,-174.8 366.13,-144.1 16.53,2.3 28.34,16.5 25.98,33 -2.36,16.6 -16.53,28.4 -33.07,26 -222.04,-26 -290.54,14.2 -299.99,92.1 -11.81,101.6 33.07,217.4 49.61,318.9 9.44,44.9 -49.61,54.4 -56.69,11.8 v 0" /></g></g></g></svg>