<?xml version="1.0" encoding="UTF-8" standalone="no"?>
<svg
   xmlns="http://www.w3.org/2000/svg"
   viewBox="1996 2052 286 286"
   height="128"
   width="128"
   xml:space="preserve"
   id="svg2"
   version="1.1"><g
     transform="matrix(1.3333333,0,0,-1.3333333,0,2666.6667)"
     id="g10"><g
       transform="scale(0.1)"
       id="g12"><g
         transform="scale(1.08831)"
         id="g26"><path
         id="path40"
         style="fill:#2a2523;fill-opacity:1;fill-rule:nonzero;stroke:none"
         d="m 14288.4,3271.5 c 61.4,144.1 316.5,628.3 909.4,496.1 349.6,-78 552.8,-437 477.2,-779.5 -9.5,-44.9 -26,-89.8 -44.9,-132.3 -18.9,-44.9 -49.6,-49.6 -94.5,-49.6 -167.7,4.7 -335.4,30.7 -498.4,70.9 -35.4,-14.2 -75.6,-33.1 -118.1,-52 -205.5,-94.5 -453.5,-205.5 -656.7,-40.2 -151.1,120.5 -349.6,193.7 -403.9,212.6 -68.5,23.6 -87.4,101.6 -14.2,137 141.8,66.2 292.9,111 444.1,137 v 0" /><path
         id="path42"
         style="fill:#ffffff;fill-opacity:1;fill-rule:nonzero;stroke:none"
         d="m 15516.7,2945.6 c 9.5,23.6 16.5,49.6 23.6,73.2 59.1,266.9 -96.8,552.7 -373.2,614.1 -463,104 -675.5,-250.4 -739.3,-389.7 337.8,-163 711,-281.1 1088.9,-297.6 v 0" /><path
         id="path44"
         style="fill:#2a2523;fill-opacity:1;fill-rule:nonzero;stroke:none"
         d="m 15143.5,3866.8 c 68.5,-4.7 139.4,-21.3 198.4,-54.4 35.4,-18.8 7.1,-70.8 -28.3,-51.9 -52,30.7 -113.4,42.5 -174.8,47.2 -42.5,2.4 -37.8,61.4 4.7,59.1 v 0" /><path
         id="path46"
         style="fill:#2a2523;fill-opacity:1;fill-rule:nonzero;stroke:none"
         d="m 14697.1,3408.5 c -11.9,-9.4 -30.7,-9.4 -42.6,4.8 -9.4,11.8 -9.4,30.7 2.4,40.1 111,96.9 243.3,144.1 366.1,144.1 137,2.4 269.3,-52 359.1,-155.9 70.8,-80.3 113.3,-191.3 115.7,-330.7 0,-16.5 -14.2,-28.3 -30.7,-30.7 -14.2,0 -28.3,14.2 -28.3,30.7 -2.4,122.8 -40.2,222 -101.6,292.9 -78,89.8 -193.7,137 -311.8,134.6 -111,0 -229.1,-42.5 -328.3,-129.9 v 0" /><path
         id="path48"
         style="fill:#ffffff;fill-opacity:1;fill-rule:nonzero;stroke:none"
         d="m 14049.8,3068.4 c 89.8,-40.2 203.2,-99.2 297.7,-177.2 129.9,-101.5 316.5,-28.3 479.5,44.9 -174.8,54.3 -344.9,125.2 -498.4,200.8 -92.2,-14.2 -186.6,-37.8 -278.8,-68.5 v 0" /></g></g></g></svg>