<?xml version="1.0" encoding="UTF-8" standalone="no"?>
<svg
   xmlns="http://www.w3.org/2000/svg"
   viewBox="961 -15 286 286"
   height="128"
   width="128"
   xml:space="preserve"
   id="svg2"
   version="1.1"><g
     transform="matrix(1.3333333,0,0,-1.3333333,0,2666.6667)"
     id="g10"><g
       transform="scale(0.1)"
       id="g12"><g
         transform="scale(1.08831)"
         id="g26"><g
         transform="scale(1.12874)"
         id="g790"><path
           id="path792"
           style="fill:#2a2523;fill-opacity:1;fill-rule:nonzero;stroke:none"
           d="m 6834.74,16243.5 c 0,33.5 29.29,56.5 60.69,54.4 87.88,-4.2 192.52,-27.2 255.31,-90 l 202.99,-196.7 c 25.11,-25.1 20.93,-62.8 -4.18,-85.8 l -175.8,-165.3 c -23.01,-23 -58.59,-20.9 -79.52,0 l -54.41,50.2 c -31.39,-303.4 31.39,-627.8 171.6,-897.8 14.65,-31.3 -2.08,-64.8 -29.29,-81.6 -238.57,-125.5 -629.91,-121.4 -853.83,4.2 -33.48,18.8 -35.57,54.4 -20.92,83.7 136.03,270 198.8,590.2 167.41,891.5 l -54.4,-50.2 c -23.03,-23 -56.51,-20.9 -79.53,2.1 l -173.69,161.1 c -27.21,27.2 -31.39,62.8 -2.09,90 l 196.71,192.5 c 66.97,64.9 163.23,85.8 253.21,92.1 33.49,2.1 64.88,-16.7 66.97,-54.4 4.19,-146.5 146.49,-146.5 152.77,0 v 0" /></g><g
         transform="scale(1.04701)"
         id="g794"><path
           id="path796"
           style="fill:#ffffff;fill-opacity:1;fill-rule:nonzero;stroke:none"
           d="m 7548.75,16300 c -169.2,-58.7 -358.7,-60.9 -527.91,-2.3 -24.81,-76.7 -51.89,-148.9 -85.73,-221.1 209.82,-83.4 489.57,-81.2 699.37,0 -33.84,72.2 -63.16,146.7 -85.73,223.4 v 0" /></g><g
         transform="scale(1.05933)"
         id="g798"><path
           id="path800"
           style="fill:#ffffff;fill-opacity:1;fill-rule:nonzero;stroke:none"
           d="m 6954.82,16157.3 c 156.08,-53.5 334.47,-51.3 490.55,4.5 -13.37,44.5 -24.52,91.4 -35.67,138.2 -133.79,-44.6 -285.42,-46.8 -419.21,-4.5 -11.15,-44.6 -22.29,-91.4 -35.67,-138.2 v 0" /></g><g
         transform="scale(1.07193)"
         id="g802"><path
           id="path804"
           style="fill:#ffffff;fill-opacity:1;fill-rule:nonzero;stroke:none"
           d="m 6939.12,16295.6 c -6.61,-46.3 -13.21,-92.6 -22.03,-138.8 127.81,-41.9 268.84,-39.7 396.65,2.2 -8.82,46.2 -15.43,92.5 -19.84,141 -114.58,-35.3 -240.19,-37.5 -354.78,-4.4 v 0" /></g><g
         transform="scale(1.12034)"
         id="g806"><path
           id="path808"
           style="fill:#ffffff;fill-opacity:1;fill-rule:nonzero;stroke:none"
           d="m 6782.7,16137.6 c -103.31,12.7 -143.37,99.1 -158.13,162.4 -46.38,-8.4 -99.09,-21.1 -132.82,-54.8 l -158.14,-153.9 94.89,-90.7 94.87,88.6 c 6.33,8.4 16.87,14.7 29.52,16.8 31.63,6.4 63.25,-14.7 67.47,-46.4 27.41,-137 33.73,-276.2 23.19,-417.4 105.42,-33.8 223.49,-31.6 331.02,4.2 -10.55,134.9 -6.33,274.1 18.97,404.8 8.43,46.4 59.04,75.9 99.09,40.1 l 94.89,-90.7 96.98,90.7 -160.24,156 c -33.73,31.6 -88.56,44.3 -132.83,52.7 -14.75,-63.3 -54.81,-149.7 -158.12,-162.4 v -242.4 c 0,-31.6 -50.61,-31.6 -50.61,0 v 242.4" /></g></g></g></g></svg>