<?xml version="1.0" encoding="UTF-8" standalone="no"?>
<svg
   xmlns="http://www.w3.org/2000/svg"
   viewBox="1995 331 286 286"
   height="128"
   width="128"
   xml:space="preserve"
   id="svg2"
   version="1.1"><g
     transform="matrix(1.3333333,0,0,-1.3333333,0,2666.6667)"
     id="g10"><g
       transform="scale(0.1)"
       id="g12"><g
         transform="scale(1.08831)"
         id="g26"><path
         id="path622"
         style="fill:#2a2523;fill-opacity:1;fill-rule:nonzero;stroke:none"
         d="m 15649,14997.1 c 0,-30.8 0,-61.5 0,-92.2 0,-181.9 -40.2,-377.9 -382.7,-380.3 -167.7,-2.3 -295.2,85.1 -380.3,222.1 -70.8,111 -99.2,231.5 -106.3,276.3 -2.3,7.1 -2.3,11.8 -2.3,18.9 -23.6,4.8 -44.9,4.8 -66.2,-2.3 0,-4.8 -2.3,-9.5 -2.3,-16.6 -9.5,-44.8 -37.8,-165.3 -106.3,-276.3 -73.3,-118.1 -191.4,-222.1 -375.6,-222.1 -342.5,0 -394.5,198.4 -387.4,472.5 0,63.7 21.3,125.1 63.8,174.7 l 326,481.9 c 144,210.2 325.9,85.1 439.3,-70.8 52,-73.3 -59,-153.6 -113.4,-80.4 -51.9,73.3 -134.6,186.7 -210.2,73.3 l -219.7,-323.6 378,2.3 c 66.1,0 132.2,-26 172.4,-80.3 44.9,11.8 92.1,11.8 134.6,2.4 40.2,51.9 108.7,77.9 174.8,77.9 l 378,-2.3 -219.7,321.2 c -75.6,113.4 -158.3,4.7 -212.6,-70.9 -52,-73.2 -165.3,7.1 -111,80.4 113.4,158.2 295.3,281 439.3,68.5 l 311.8,-460.7 c 44.9,-66.1 75.6,-113.3 78,-193.6 v 0" /><path
         id="path624"
         style="fill:#ffffff;fill-opacity:1;fill-rule:nonzero;stroke:none"
         d="m 15396.2,15112.8 -389.7,2.4 c -70.9,0 -101.6,-23.7 -85,-96.9 11.8,-47.2 35.4,-125.2 80.3,-198.4 61.4,-96.9 151.1,-158.3 266.9,-158.3 217.3,4.8 243.3,132.3 243.3,250.4 0,26 0,54.3 -2.4,80.3 0,73.3 -44.9,120.5 -113.4,120.5 v 0" /><path
         id="path626"
         style="fill:#ffffff;fill-opacity:1;fill-rule:nonzero;stroke:none"
         d="m 14503.4,15115.2 -406.3,-2.4 c -68.5,0 -118.1,-42.5 -120.5,-115.7 0,-26 0,-54.4 0,-80.4 0,-120.4 21.3,-255.1 250.4,-255.1 125.2,0 205.5,75.6 257.5,158.3 47.2,75.6 73.2,160.6 82.6,207.9 14.2,54.3 -4.7,87.4 -63.7,87.4 v 0" /><path
         id="path628"
         style="fill:#2a2523;fill-opacity:1;fill-rule:nonzero;stroke:none"
         d="m 15346.6,15067.9 c 68.5,0 115.8,-56.7 118.1,-122.8 0,-16.5 0,-30.7 0,-44.9 0,-92.1 -18.9,-193.7 -193.7,-193.7 -16.5,0 -30.7,14.2 -30.7,30.7 0,16.6 14.2,30.7 30.7,30.7 120.5,0 134.7,68.5 134.7,132.3 0,14.2 0,30.7 0,44.9 -2.4,33.1 -23.6,63.8 -59.1,63.8 -42.5,2.3 -40.1,61.4 0,59 v 0" /><path
         id="path630"
         style="fill:#2a2523;fill-opacity:1;fill-rule:nonzero;stroke:none"
         d="m 14177.4,15039.6 c 0,-18.9 -14.2,-28.4 -30.7,-30.7 -35.4,0 -59.1,-30.7 -59.1,-66.2 0,-14.1 0,-30.7 0,-44.9 0,-63.7 14.2,-129.9 134.7,-129.9 16.5,0 28.3,-14.1 28.3,-30.7 0,-16.5 -11.8,-30.7 -28.3,-30.7 -174.8,0 -193.7,101.6 -193.7,193.7 0,14.2 0,30.7 0,44.9 0,66.1 49.6,122.8 115.7,122.8 16.6,2.4 33.1,-9.4 33.1,-28.3 v 0" /></g></g></g></svg>