<?xml version="1.0" encoding="UTF-8" standalone="no"?>
<svg
   xmlns="http://www.w3.org/2000/svg"
   viewBox="1307 331 286 286"
   height="128"
   width="128"
   xml:space="preserve"
   id="svg2"
   version="1.1"><g
     transform="matrix(1.3333333,0,0,-1.3333333,0,2666.6667)"
     id="g10"><g
       transform="scale(0.1)"
       id="g12"><g
         transform="scale(1.08831)"
         id="g26"><path
         id="path650"
         style="fill:#2a2523;fill-opacity:1;fill-rule:nonzero;stroke:none"
         d="m 9195.7,14718.3 c -37.79,0 -68.5,30.7 -68.5,70.9 0,37.8 30.71,68.5 68.5,68.5 h 214.95 c 4.73,340.1 70.86,536.2 170.07,633 99.21,96.9 212.6,101.6 330.7,33.1 23.62,-14.2 49.61,-30.7 73.22,-30.7 25.96,0 49.56,16.5 75.56,30.7 271.7,158.3 434.7,-127.6 477.2,-370.9 7.1,-49.6 14.2,-103.9 18.9,-162.9 2.3,-40.2 4.7,-85.1 4.7,-132.3 h 243.3 c 37.8,0 68.5,-30.7 68.5,-68.5 0,-40.2 -30.7,-70.9 -68.5,-70.9 H 9195.7" /><path
         id="path652"
         style="fill:#ffffff;fill-opacity:1;fill-rule:nonzero;stroke:none"
         d="m 10419.3,14947.4 h -866.92 c -2.37,-28.3 -2.37,-56.6 -4.73,-87.4 h 873.95 c 0,30.8 0,59.1 -2.3,87.4 v 0" /><path
         id="path654"
         style="fill:#ffffff;fill-opacity:1;fill-rule:nonzero;stroke:none"
         d="m 9554.74,15006.5 h 859.86 c -2.4,44.9 -7.1,87.4 -14.2,125.2 -23.6,129.9 -94.5,375.6 -269.3,271.6 -42.5,-23.6 -85,-49.6 -146.46,-49.6 -59.05,0 -101.56,26 -144.08,49.6 -61.42,37.8 -108.66,42.6 -162.99,-11.8 -61.41,-59 -106.3,-179.5 -122.83,-385 v 0" /><path
         id="path656"
         style="fill:#2a2523;fill-opacity:1;fill-rule:nonzero;stroke:none"
         d="m 9632.69,15089.2 c 14.18,111 42.52,314.1 196.06,245.6 25.98,-11.8 54.33,-23.6 96.84,-21.2 40.16,2.3 42.52,-56.7 4.73,-59.1 -59.06,-4.7 -94.49,11.8 -125.19,26 -96.85,44.9 -106.3,-134.6 -113.39,-200.8 -4.72,-44.9 -63.78,-37.8 -59.05,9.5 v 0" /></g></g></g></svg>