<?xml version="1.0" encoding="UTF-8" standalone="no"?>
<svg
   xmlns="http://www.w3.org/2000/svg"
   viewBox="619 2050 286 286"
   height="128"
   width="128"
   xml:space="preserve"
   id="svg2"
   version="1.1"><g
     transform="matrix(1.3333333,0,0,-1.3333333,0,2666.6667)"
     id="g10"><g
       transform="scale(0.1)"
       id="g12"><g
         transform="scale(1.08831)"
         id="g26"><path
         id="path94"
         style="fill:#2a2523;fill-opacity:1;fill-rule:nonzero;stroke:none"
         d="m 5522.62,3125.1 c 9.45,42.5 54.32,68.5 96.84,49.6 l 363.77,-155.9 c 304.71,-132.3 288.18,-354.3 -61.42,-354.3 -148.81,0 -269.28,0 -415.73,0 -170.07,0 -309.43,0 -427.54,153.5 -75.59,99.2 -151.18,198.4 -259.83,266.9 l -16.54,-316.5 c -2.36,-40.2 -23.62,-78 -70.86,-78 h -144.09 c -40.15,0 -73.23,28.4 -73.23,68.5 2.37,363.8 -70.86,463 -125.19,533.9 -40.15,54.3 -73.22,99.2 -75.58,191.3 -9.46,212.6 179.51,373.2 214.95,401.6 28.34,23.6 68.5,26 96.84,-2.4 0,0 699.19,-682.6 805.48,-781.8 30.71,-26 82.68,-18.9 92.13,23.6 v 0" /><path
         id="path96"
         style="fill:#ffffff;fill-opacity:1;fill-rule:nonzero;stroke:none"
         d="m 4693.52,3217.2 c -40.16,11.8 -80.32,23.6 -118.11,40.2 40.16,-82.7 73.22,-207.9 75.59,-427.6 h 14.17 l 28.35,387.4" /><path
         id="path98"
         style="fill:#ffffff;fill-opacity:1;fill-rule:nonzero;stroke:none"
         d="m 4539.98,3344.7 c 85.03,-59 186.6,-63.7 276.37,-103.9 162.98,-70.8 264.55,-205.5 373.21,-340.1 77.94,-99.2 186.61,-99.2 316.52,-99.2 146.45,0 266.92,0 415.73,0 170.07,0 106.3,44.8 4.73,89.7 l -302.36,129.9 c -68.5,-89.7 -205.5,-96.8 -288.17,-18.9 -89.76,82.7 -604.7,583.5 -762.96,739.4 -49.61,-52 -125.19,-144.1 -122.83,-252.8 2.36,-56.7 42.51,-113.3 89.76,-144.1 v 0" /><path
         id="path100"
         style="fill:#2a2523;fill-opacity:1;fill-rule:nonzero;stroke:none"
         d="m 4535.25,3618.8 c 9.45,14.1 28.35,18.9 42.52,9.4 14.17,-7.1 16.54,-26 9.45,-40.2 -68.5,-111 40.15,-181.8 137,-203.1 14.17,-4.7 25.99,-18.9 21.26,-35.4 -2.36,-16.6 -18.9,-26 -35.43,-23.6 -134.64,30.7 -264.56,144 -174.8,292.9 v 0" /><g
         transform="scale(1.12164)"
         id="g102"><path
           id="path104"
           style="fill:#ffffff;fill-opacity:1;fill-rule:evenodd;stroke:none"
           d="M 14221.4,6082 H 16300 V 4003.43 H 14221.4 V 6082" /></g><g
         transform="scale(1.10585)"
         id="g106"><path
           id="path108"
           style="fill:#2a2523;fill-opacity:1;fill-rule:nonzero;stroke:none"
           d="m 15477.6,4613.84 -40.6,-155.99 c -8.5,-34.18 -42.7,-53.35 -74.7,-44.85 l -643,132.48 c -42.7,8.5 -61.9,44.85 -49.1,85.45 l 277.7,967.59 v 158.06 c 0,34.19 27.8,61.95 62,61.95 h 935.5 c 34.2,0 64.1,-27.76 64.1,-61.95 v -158.06 l 277.7,-963.34 c 12.8,-44.85 -6.5,-81.2 -53.5,-89.7 l -640.8,-134.56 c -38.4,-6.42 -66.2,17.09 -74.7,51.27 l -40.6,151.65" /></g><g
         transform="scale(1.07759)"
         id="g110"><path
           id="path112"
           style="fill:#ffffff;fill-opacity:1;fill-rule:nonzero;stroke:none"
           d="m 15469.2,5762.87 h 830.8 v 78.88 h -830.8 v -78.88" /></g><g
         transform="scale(1.0957)"
         id="g114"><path
           id="path116"
           style="fill:#ffffff;fill-opacity:1;fill-rule:nonzero;stroke:none"
           d="M 16034.9,5613.67 H 15207 l -262.9,-916.21 528.1,-109.89 86.3,325.55 c 19.3,66.8 107.7,66.8 125,-2.19 l 86.2,-323.36 530.3,109.89 -265.1,916.21" /></g><g
         transform="scale(1.08874)"
         id="g118"><path
           id="path120"
           style="fill:#2a2523;fill-opacity:1;fill-rule:nonzero;stroke:none"
           d="m 16044,5525.92 c -4.3,15.15 4.3,30.4 19.6,34.72 12.9,2.2 28.2,-6.53 32.5,-19.57 l 197.5,-728.91 c 6.4,-21.77 -2.2,-34.72 -23.9,-39.13 l -306,-62.92 c -15.1,-2.11 -30.4,6.52 -32.5,21.77 -2.2,15.16 6.5,30.31 21.7,32.52 l 282.1,56.39 -191,705.13" /></g><g
         transform="scale(1.03658)"
         id="g122"><path
           id="path124"
           style="fill:#2a2523;fill-opacity:1;fill-rule:nonzero;stroke:none"
           d="m 16122.2,5819.93 c 4.6,13.7 20.6,22.86 36.5,20.55 13.7,-4.54 22.8,-20.55 18.2,-36.47 l -200.5,-740.61 298.5,-59.24 c 13.7,-2.31 25.1,-18.23 20.6,-34.15 -2.3,-16.01 -18.3,-25.08 -32,-22.86 l -325.8,66.08 c 0,0 -2.4,0 -4.6,0 -13.7,4.64 -22.7,20.55 -20.5,36.47 l 209.6,770.23" /></g></g></g></g></svg>