<?xml version="1.0" encoding="UTF-8" standalone="no"?>
<svg
   xmlns="http://www.w3.org/2000/svg"
   viewBox="1310 669 286 286"
   height="128"
   width="128"
   xml:space="preserve"
   id="svg2"
   version="1.1"><g
     transform="matrix(1.3333333,0,0,-1.3333333,0,2666.6667)"
     id="g10"><g
       transform="scale(0.1)"
       id="g12"><g
         transform="scale(1.08831)"
         id="g26"><path
         id="path534"
         style="fill:#2a2523;fill-opacity:1;fill-rule:nonzero;stroke:none"
         d="m 10452.3,13627 248.1,-1660.5 c 9.4,-54.4 -18.9,-89.8 -73.3,-92.2 l -455.8,-21.2 c -35.5,-2.4 -66.2,26 -70.9,61.4 l -99.2,628.3 -103.95,-623.6 c -7.09,-40.1 -42.52,-61.4 -77.95,-59 l -458.26,40.1 c -42.51,2.4 -68.49,42.5 -63.77,82.7 l 250.38,1648.8 c 7.09,37.7 37.8,63.7 75.59,59 l 760.56,-2.4 c 35.5,0 63.8,-26 68.5,-61.4 v 0" /><path
         id="path536"
         style="fill:#ffffff;fill-opacity:1;fill-rule:nonzero;stroke:none"
         d="m 10216.1,13442.8 c 11.8,-80.3 66.2,-137 146.5,-148.8 l -21.3,148.8 h -125.2" /><path
         id="path538"
         style="fill:#ffffff;fill-opacity:1;fill-rule:nonzero;stroke:none"
         d="m 9637.41,13294 c 80.31,11.8 146.46,66.1 160.63,148.8 h -139.37 l -21.26,-148.8" /><path
         id="path540"
         style="fill:#ffffff;fill-opacity:1;fill-rule:nonzero;stroke:none"
         d="m 10008.3,13442.8 v -264.6 c 35.4,9.5 51.9,37.8 51.9,73.2 l -2.3,191.4 h -49.6" /><path
         id="path542"
         style="fill:#ffffff;fill-opacity:1;fill-rule:nonzero;stroke:none"
         d="m 10331.9,13501.8 -7.1,47.3 -649.59,4.7 -7.09,-52 c 222.04,0 441.68,0 663.78,0 v 0" /><path
         id="path544"
         style="fill:#ffffff;fill-opacity:1;fill-rule:nonzero;stroke:none"
         d="m 10539.7,12112.9 -328.3,-11.8 16.5,-106.3 326,14.2 -14.2,103.9" /><path
         id="path546"
         style="fill:#ffffff;fill-opacity:1;fill-rule:nonzero;stroke:none"
         d="m 9469.7,12193.2 328.34,-30.7 137,819.7 c 14.17,82.6 125.16,82.6 136.96,-2.4 l 130,-819.6 328.3,11.8 -158.3,1060.6 c -115.7,9.4 -203.1,94.4 -217.3,210.2 h -37.8 l 2.4,-189 c 0,-80.3 -52,-134.6 -134.66,-137 -16.53,0 -35.43,7.1 -35.43,30.7 v 295.3 h -89.76 c -16.53,-118.1 -115.74,-200.8 -231.49,-210.2 L 9469.7,12193.2" /><path
         id="path548"
         style="fill:#ffffff;fill-opacity:1;fill-rule:nonzero;stroke:none"
         d="m 9786.23,12105.8 -325.98,28.4 -14.17,-101.6 323.61,-28.3 16.54,101.5" /></g></g></g></svg>