<?xml version="1.0" encoding="UTF-8" standalone="no"?>
<svg
   xmlns="http://www.w3.org/2000/svg"
   viewBox="615 -19 286 286"
   height="128"
   width="128"
   xml:space="preserve"
   id="svg2"
   version="1.1"><g
     transform="matrix(1.3333333,0,0,-1.3333333,0,2666.6667)"
     id="g10"><g
       transform="scale(0.1)"
       id="g12"><g
         transform="scale(1.08831)"
         id="g26"><g
         transform="scale(1.13425)"
         id="g842"><path
           id="path844"
           style="fill:#2a2523;fill-opacity:1;fill-rule:nonzero;stroke:none"
           d="m 5302.14,15479.5 v -460.3 c 0,-204 -166.61,-356.1 -364.45,-356.1 h -606.02 c -202,0 -366.52,154.1 -366.52,360.3 v 456.1 c 0,31.2 27.07,58.3 58.31,58.3 h 27.07 c 8.32,174.9 64.56,335.3 154.11,458.2 224.91,304 645.58,304 870.49,0 91.64,-122.9 145.78,-283.3 154.11,-458.2 h 12.49 c 33.33,0 60.41,-27.1 60.41,-58.3 v 0" /></g><g
         transform="scale(1.06368)"
         id="g846"><path
           id="path848"
           style="fill:#ffffff;fill-opacity:1;fill-rule:nonzero;stroke:none"
           d="m 5127.62,15960.2 v -59.9 c 0,-51.1 -35.54,-91.1 -86.62,-91.1 h -197.64 c -22.21,0 -46.63,8.9 -64.4,26.7 -17.76,17.7 -24.42,39.9 -24.42,64.4 v 62.1 c -177.66,48.9 -319.78,173.3 -399.73,337.6 v -282 c 0,-142.2 113.26,-255.4 255.39,-255.4 h 661.76 c 139.9,0 255.39,111 255.39,253.1 v 279.9 c -82.18,-164.4 -224.3,-286.5 -399.73,-335.4 v 0" /></g><g
         transform="scale(1.07295)"
         id="g850"><path
           id="path852"
           style="fill:#ffffff;fill-opacity:1;fill-rule:nonzero;stroke:none"
           d="m 4847.73,16300 v -363.3 h 101.26 v 363.3 h -101.26" /></g><g
         transform="scale(1.07295)"
         id="g854"><path
           id="path856"
           style="fill:#ffffff;fill-opacity:1;fill-rule:nonzero;stroke:none"
           d="m 4794.89,15936.7 v 363.3 h -475.53 c 57.25,-195.9 198.14,-361.1 398.49,-420.5 10.99,30.8 41.81,55 77.04,57.2 v 0" /></g><g
         transform="scale(1.04542)"
         id="g858"><path
           id="path860"
           style="fill:#ffffff;fill-opacity:1;fill-rule:nonzero;stroke:none"
           d="m 4927.96,16300 c -20.34,0 -33.89,-11.3 -33.89,-33.9 v -88.1 c 0,-22.6 11.29,-36.2 31.63,-36.2 h 203.35 c 18.08,0 33.9,13.6 33.9,31.7 v 92.6 c 0,20.3 -13.56,33.9 -36.16,33.9 -65.52,0 -133.3,0 -198.83,0 v 0" /></g><g
         transform="scale(1.07295)"
         id="g862"><path
           id="path864"
           style="fill:#ffffff;fill-opacity:1;fill-rule:nonzero;stroke:none"
           d="m 5004.04,16300 v -363.3 c 33.02,-2.2 63.84,-26.4 74.85,-59.4 200.34,61.6 341.23,222.4 400.68,422.7 h -475.53" /></g><g
         transform="scale(1.04875)"
         id="g866"><path
           id="path868"
           style="fill:#2a2523;fill-opacity:1;fill-rule:nonzero;stroke:none"
           d="m 4500.13,16268.5 c 6.75,-114.9 87.83,-200.5 204.95,-211.8 11.27,-2.2 20.28,-11.2 20.28,-24.7 -2.25,-11.3 -13.52,-20.3 -24.78,-18 -137.4,13.5 -236.5,117.1 -243.25,252.2 -2.25,31.5 42.8,33.8 42.8,2.3 v 0" /></g><g
         transform="scale(1.11657)"
         id="g870"><path
           id="path872"
           style="fill:#ffffff;fill-opacity:1;fill-rule:nonzero;stroke:none"
           d="m 5077.22,15783.8 c -2.12,116.4 -40.2,230.6 -103.65,317.3 -139.63,190.4 -387.15,198.9 -524.65,0 -59.24,-84.6 -95.2,-198.8 -97.32,-317.3 h 725.62" /></g><g
         transform="scale(1.12483)"
         id="g874"><path
           id="path876"
           style="fill:#ffffff;fill-opacity:1;fill-rule:nonzero;stroke:none"
           d="m 4269.25,15667.9 c 2.1,126 39.89,249.9 105,344.4 157.5,226.8 445.18,218.4 604.79,0 69.3,-92.4 109.2,-216.3 111.3,-344.4 h 63 c -8.4,151.2 -54.6,287.7 -132.3,390.6 -178.5,241.5 -506.1,241.5 -684.59,0 -75.61,-102.9 -121.8,-239.4 -132.3,-390.6 h 65.1" /></g></g></g></g></svg>