<?xml version="1.0" encoding="UTF-8" standalone="no"?>
<svg
   xmlns="http://www.w3.org/2000/svg"
   viewBox="963 1014 286 286"
   height="128"
   width="128"
   xml:space="preserve"
   id="svg2"
   version="1.1"><g
     transform="matrix(1.3333333,0,0,-1.3333333,0,2666.6667)"
     id="g10"><g
       transform="scale(0.1)"
       id="g12"><g
         transform="scale(1.08831)"
         id="g26"><path
         id="path434"
         style="fill:#2a2523;fill-opacity:1;fill-rule:nonzero;stroke:none"
         d="m 8125.66,11101.9 c 92.12,-165.3 134.64,-342.5 174.8,-517.3 37.79,-167.7 75.58,-333 158.26,-479.5 16.53,-30.7 7.09,-70.8 -21.26,-92.1 -16.53,-9.5 -139.36,-92.1 -297.63,-78 -33.06,2.4 -59.05,28.4 -63.77,61.5 -2.36,16.5 -30.71,186.6 -87.4,366.1 2.36,-160.6 28.35,-378 115.74,-621.3 9.45,-28.3 0,-54.3 -18.89,-73.2 -40.16,-44.9 -290.54,-292.9 -798.4,-61.4 -30.7,11.8 -47.24,44.9 -40.15,78 7.08,44.8 61.41,415.7 44.88,706.2 -35.43,-108.6 -68.51,-255.1 -80.31,-434.6 -4.73,-35.4 -33.07,-61.4 -66.14,-63.8 -14.17,0 -181.88,-9.4 -335.42,129.9 -23.62,23.7 -28.35,61.5 -11.82,89.8 25.99,47.2 292.91,550.4 278.73,914.1 -2.36,30.7 16.54,49.6 37.8,66.2 134.64,89.7 285.81,167.7 444.07,193.7 115.75,18.9 205.51,-16.6 307.08,-68.5 51.97,-28.4 103.94,-54.4 155.9,-56.7 56.69,-4.7 75.58,-11.8 103.93,-59.1 v 0" /><path
         id="path436"
         style="fill:#ffffff;fill-opacity:1;fill-rule:nonzero;stroke:none"
         d="m 7646.15,10863.4 c 42.52,66.1 70.87,151.1 68.5,231.4 0,14.2 -2.36,28.4 -4.72,42.6 -35.43,11.8 -68.5,18.9 -106.29,14.1 -7.09,0 -16.54,-2.3 -23.63,-2.3 -7.08,-70.9 -4.72,-189 66.14,-285.8 v 0" /><path
         id="path438"
         style="fill:#ffffff;fill-opacity:1;fill-rule:nonzero;stroke:none"
         d="m 7445.38,11111.4 c -11.82,-30.7 -30.71,-66.2 -56.69,-104 18.89,0 47.24,0 77.94,4.8 18.9,4.7 33.07,-11.8 33.07,-30.7 2.37,-40.2 -11.81,-78 -28.34,-111.1 40.15,-59 108.65,-89.7 177.16,-99.2 -122.83,113.4 -137.01,269.3 -129.92,363.8 -23.62,-4.7 -47.24,-14.2 -73.22,-23.6 v 0" /><path
         id="path440"
         style="fill:#ffffff;fill-opacity:1;fill-rule:nonzero;stroke:none"
         d="m 7738.28,10778.3 c 49.6,23.6 87.39,68.5 115.74,113.4 -40.15,35.4 -47.24,75.6 -49.61,92.1 -2.36,9.5 0,21.3 9.46,28.4 25.98,21.2 49.6,35.4 68.49,42.5 -37.79,16.5 -73.22,35.4 -108.65,54.3 0,-4.7 0,-9.4 0,-11.8 4.72,-99.2 -33.07,-203.1 -87.4,-278.7 16.54,-14.2 33.07,-28.4 51.97,-40.2 v 0" /><path
         id="path442"
         style="fill:#ffffff;fill-opacity:1;fill-rule:nonzero;stroke:none"
         d="m 7790.24,10303.5 c 18.9,4.8 40.16,9.5 61.42,16.6 -7.09,174.8 9.45,295.2 16.53,333 9.45,61.4 89.76,99.2 127.56,33.1 120.47,-196.1 184.24,-489 207.86,-611.8 40.16,2.4 75.59,14.2 101.57,26 -68.5,144.1 -103.93,297.6 -139.36,451.2 -37.79,162.9 -75.59,325.9 -153.54,470 -18.9,0 -35.43,4.7 -51.97,7.1 -33.06,-9.4 -66.14,-30.7 -94.48,-52 4.73,-11.8 16.53,-33 42.52,-49.6 21.26,-11.8 16.53,-30.7 7.08,-47.2 -35.43,-63.8 -82.67,-122.8 -146.45,-153.5 4.73,-70.9 7.09,-141.8 11.82,-215 4.72,-66.1 7.08,-137 9.44,-207.9 v 0" /><path
         id="path444"
         style="fill:#ffffff;fill-opacity:1;fill-rule:nonzero;stroke:none"
         d="m 7431.2,10310.6 c 96.85,-21.2 200.78,-26 299.99,-14.2 -2.36,70.9 -4.73,141.8 -9.45,212.6 -2.36,68.5 -7.09,134.7 -11.81,203.2 -115.74,-9.5 -236.21,40.1 -297.63,139.3 -7.08,9.5 -7.08,21.3 -2.36,33.1 14.18,18.9 23.62,42.5 28.35,63.8 -61.41,-4.7 -106.3,9.4 -113.38,9.4 -18.9,7.1 -28.35,33.1 -14.17,49.6 21.25,23.7 37.79,44.9 49.6,68.5 -49.6,-25.9 -99.21,-51.9 -144.09,-82.6 -2.36,-340.2 -198.42,-755.9 -271.64,-900 49.6,-35.4 99.21,-49.6 134.64,-56.7 37.79,363.8 158.26,597.6 174.79,630.7 28.35,52 108.66,56.7 129.92,-4.7 33.07,-92.2 44.88,-219.7 47.24,-352 v 0" /><path
         id="path446"
         style="fill:#ffffff;fill-opacity:1;fill-rule:nonzero;stroke:none"
         d="m 7731.19,10069.7 c -101.57,-14.2 -205.5,-7.1 -304.71,21.2 -7.09,-160.6 -25.99,-304.7 -35.44,-380.3 120.47,-47.2 219.68,-63.7 302.36,-63.7 9.45,63.7 18.89,127.5 23.62,193.7 7.08,75.5 11.81,151.1 14.17,229.1 v 0" /><path
         id="path448"
         style="fill:#ffffff;fill-opacity:1;fill-rule:nonzero;stroke:none"
         d="m 7870.56,10107.5 c -25.99,-11.8 -51.97,-18.9 -80.32,-26 -2.36,-82.7 -7.08,-165.4 -14.17,-245.7 -4.72,-63.7 -11.81,-125.2 -21.26,-184.2 103.94,14.2 170.07,56.7 203.14,85 -42.52,132.3 -70.86,257.5 -87.39,370.9 v 0" /><path
         id="path450"
         style="fill:#ffffff;fill-opacity:1;fill-rule:nonzero;stroke:none"
         d="m 7431.2,10152.4 c 139.37,-44.9 297.63,-42.6 432.27,14.1 -2.36,33.1 -7.09,63.8 -9.45,92.2 -137,-35.5 -283.45,-37.8 -422.82,-9.5 0,-30.7 0,-63.8 0,-96.8 v 0" /></g></g></g></svg>