<?xml version="1.0" encoding="UTF-8" standalone="no"?>
<svg
   xmlns="http://www.w3.org/2000/svg"
   viewBox="965 671 286 286"
   height="128"
   width="128"
   xml:space="preserve"
   id="svg2"
   version="1.1"><g
     transform="matrix(1.3333333,0,0,-1.3333333,0,2666.6667)"
     id="g10"><g
       transform="scale(0.1)"
       id="g12"><g
         transform="scale(1.08831)"
         id="g26"><path
         id="path552"
         style="fill:#2a2523;fill-opacity:1;fill-rule:nonzero;stroke:none"
         d="m 7726.46,13341.2 h 569.28 c 47.24,0 66.14,-37.8 68.49,-77.9 7.09,-120.5 33.07,-226.8 61.42,-337.8 42.52,-163 87.4,-335.4 73.23,-581.1 -2.37,-44.9 -33.07,-70.9 -80.32,-70.9 h -420.45 c -54.33,0 -106.29,16.6 -151.18,52 -73.22,-42.5 -155.89,-73.2 -238.57,-92.1 -264.56,-63.8 -564.54,-23.6 -798.39,82.7 -28.35,11.8 -37.8,35.4 -42.52,61.4 -23.62,99.2 -16.54,207.8 54.33,288.1 42.52,52 103.93,85.1 177.16,104 118.1,30.7 226.76,16.5 342.5,70.8 162.99,80.4 274,241 311.8,437 9.45,37.8 33.07,63.8 73.22,63.8 v 0" /><path
         id="path554"
         style="fill:#ffffff;fill-opacity:1;fill-rule:nonzero;stroke:none"
         d="m 8361.88,12481.4 h -295.27 c -87.4,0 -148.81,37.8 -184.25,106.3 -297.62,-167.7 -670.83,-229.1 -987.36,-85 -4.72,-23.7 -2.36,-49.6 2.36,-73.3 181.89,-87.4 455.89,-115.7 677.93,-61.4 85.04,21.3 167.71,54.3 240.94,101.6 37.79,23.6 77.94,21.2 108.65,-21.3 16.54,-23.6 44.89,-37.8 73.23,-37.8 h 363.77 c 0,26 0,47.3 0,70.9 v 0" /><path
         id="path556"
         style="fill:#ffffff;fill-opacity:1;fill-rule:nonzero;stroke:none"
         d="M 8253.22,13050.7 H 7724.1 c -68.49,-146.5 -179.52,-264.6 -321.24,-333.1 -127.56,-61.4 -243.3,-49.6 -368.49,-82.7 -47.25,-11.8 -94.49,-33 -120.47,-75.5 309.43,-144.1 680.29,-75.6 966.1,94.4 18.9,11.8 37.8,0 44.88,-16.5 21.26,-61.4 75.59,-94.5 141.73,-96.9 h 290.54 c -9.45,134.7 -37.79,243.4 -66.14,352 -11.81,52 -25.98,103.9 -37.79,158.3 v 0" /><path
         id="path558"
         style="fill:#ffffff;fill-opacity:1;fill-rule:nonzero;stroke:none"
         d="m 7750.09,13112.1 h 491.32 c -4.73,28.3 -9.45,59 -11.82,89.7 h -451.16 c -7.08,-30.7 -16.53,-61.4 -28.34,-89.7 v 0" /></g></g></g></svg>