<?xml version="1.0" encoding="UTF-8" standalone="no"?>
<svg
   xmlns="http://www.w3.org/2000/svg"
   viewBox="2341 1701 286 286"
   height="128"
   width="128"
   xml:space="preserve"
   id="svg2"
   version="1.1"><g
     transform="matrix(1.3333333,0,0,-1.3333333,0,2666.6667)"
     id="g10"><g
       transform="scale(0.1)"
       id="g12"><g
         transform="scale(1.08831)"
         id="g26"><g
         transform="scale(1.10585)"
         id="g982"><path
           id="path984"
           style="fill:#2a2523;fill-opacity:1;fill-rule:nonzero;stroke:none"
           d="m 15477.6,4613.84 -40.6,-155.99 c -8.5,-34.18 -42.7,-53.35 -74.7,-44.85 l -643,132.48 c -42.7,8.5 -61.9,44.85 -49.1,85.45 l 277.7,967.59 v 158.06 c 0,34.19 27.8,61.95 62,61.95 h 935.5 c 34.2,0 64.1,-27.76 64.1,-61.95 v -158.06 l 277.7,-963.34 c 12.8,-44.85 -6.5,-81.2 -53.5,-89.7 l -640.8,-134.56 c -38.4,-6.42 -66.2,17.09 -74.7,51.27 l -40.6,151.65" /></g><g
         transform="scale(1.07759)"
         id="g986"><path
           id="path988"
           style="fill:#ffffff;fill-opacity:1;fill-rule:nonzero;stroke:none"
           d="m 15469.2,5762.87 h 830.8 v 78.88 h -830.8 v -78.88" /></g><g
         transform="scale(1.0957)"
         id="g990"><path
           id="path992"
           style="fill:#ffffff;fill-opacity:1;fill-rule:nonzero;stroke:none"
           d="M 16034.9,5613.67 H 15207 l -262.9,-916.21 528.1,-109.89 86.3,325.55 c 19.3,66.8 107.7,66.8 125,-2.19 l 86.2,-323.36 530.3,109.89 -265.1,916.21" /></g><g
         transform="scale(1.08874)"
         id="g994"><path
           id="path996"
           style="fill:#2a2523;fill-opacity:1;fill-rule:nonzero;stroke:none"
           d="m 16044,5525.92 c -4.3,15.15 4.3,30.4 19.6,34.72 12.9,2.2 28.2,-6.53 32.5,-19.57 l 197.5,-728.91 c 6.4,-21.77 -2.2,-34.72 -23.9,-39.13 l -306,-62.92 c -15.1,-2.11 -30.4,6.52 -32.5,21.77 -2.2,15.16 6.5,30.31 21.7,32.52 l 282.1,56.39 -191,705.13" /></g><g
         transform="scale(1.03658)"
         id="g998"><path
           id="path1000"
           style="fill:#2a2523;fill-opacity:1;fill-rule:nonzero;stroke:none"
           d="m 16122.2,5819.93 c 4.6,13.7 20.6,22.86 36.5,20.55 13.7,-4.54 22.8,-20.55 18.2,-36.47 l -200.5,-740.61 298.5,-59.24 c 13.7,-2.31 25.1,-18.23 20.6,-34.15 -2.3,-16.01 -18.3,-25.08 -32,-22.86 l -325.8,66.08 c 0,0 -2.4,0 -4.6,0 -13.7,4.64 -22.7,20.55 -20.5,36.47 l 209.6,770.23" /></g></g></g></g></svg>