<?xml version="1.0" encoding="UTF-8" standalone="no"?>
<svg
   xmlns="http://www.w3.org/2000/svg"
   viewBox="2341 671 286 286"
   height="128"
   width="128"
   xml:space="preserve"
   id="svg2"
   version="1.1"><g
     transform="matrix(1.3333333,0,0,-1.3333333,0,2666.6667)"
     id="g10"><g
       transform="scale(0.1)"
       id="g12"><g
         transform="scale(1.08831)"
         id="g26"><g
         transform="scale(1.10034)"
         id="g1358"><path
           id="path1360"
           style="fill:#2a2523;fill-opacity:1;fill-rule:nonzero;stroke:none"
           d="m 15381.2,12264.2 c 270.5,25.7 573.2,-19.3 796.5,-176 38.6,-25.8 47.1,-60.2 53.6,-103.1 6.4,-49.4 4.3,-105.2 -15,-152.4 81.5,-255.5 83.7,-523.8 47.3,-785.7 -2.2,-23.6 -17.2,-40.8 -36.6,-47.2 -193.2,-90.2 -437.9,-58 -626.8,17.1 -25.8,10.8 -36.5,32.2 -38.7,58 l -6.4,96.6 -73,-88 c -15,-17.2 -32.2,-32.2 -57.9,-30.1 -229.8,4.3 -444.4,98.8 -586.1,285.6 -12.9,17.1 -17.2,38.6 -8.6,57.9 81.6,244.7 208.3,487.3 395,667.6 10.7,75.2 53.6,148.2 118.1,186.8 12.9,8.6 23.6,10.7 38.6,12.9 v 0" /></g><g
         transform="scale(1.08788)"
         id="g1362"><path
           id="path1364"
           style="fill:#ffffff;fill-opacity:1;fill-rule:nonzero;stroke:none"
           d="m 16295.6,12107.2 c -199.8,-45.6 -590.5,6.5 -740.4,158.5 -21.7,-26.1 -34.7,-58.6 -36.9,-91.2 223.6,-152 499.4,-201.9 768.6,-169.4 13.1,28.3 13.1,65.2 8.7,99.9 v 2.2" /></g><g
         transform="scale(1.08527)"
         id="g1366"><path
           id="path1368"
           style="fill:#ffffff;fill-opacity:1;fill-rule:nonzero;stroke:none"
           d="m 15699.2,12275.6 c 141.5,-76.2 383.1,-115.4 546.3,-104.5 48,2.2 54.5,13.1 8.7,37 -161,82.7 -354.7,115.4 -537.6,113.2 -63.1,-2.2 -78.3,-13.1 -17.4,-45.7 v 0" /></g><g
         transform="scale(1.04397)"
         id="g1370"><path
           id="path1372"
           style="fill:#ffffff;fill-opacity:1;fill-rule:nonzero;stroke:none"
           d="m 16300,11858.4 c -190.1,20.4 -364.3,113.1 -500.1,246.6 -13.6,-33.9 -27.1,-67.8 -38.4,-104 119.9,-140.3 289.5,-212.7 470.6,-221.8 l 67.9,79.2" /></g><g
         transform="scale(1.09077)"
         id="g1374"><path
           id="path1376"
           style="fill:#ffffff;fill-opacity:1;fill-rule:nonzero;stroke:none"
           d="m 16300,11276 c -160.3,-36.9 -331.3,-30.4 -487.3,21.6 l 4.4,-84.4 c 145.1,-49.8 324.8,-75.8 472.1,-19.5 4.3,28.1 6.5,56.3 10.8,82.3 v 0" /></g><g
         transform="scale(1.09179)"
         id="g1378"><path
           id="path1380"
           style="fill:#ffffff;fill-opacity:1;fill-rule:nonzero;stroke:none"
           d="m 15709.4,11763.1 c 15.1,0 28.1,-4.3 38.9,-15.1 58.5,32.4 41.2,125.5 80.1,177.4 -138.5,26 -268.3,77.9 -387.3,157.9 -136.3,-125.5 -235.8,-287.7 -311.6,-456.5 132,-136.3 307.3,-229.3 497.7,-240.1 l 54.1,64.9 c 10.8,13 25.9,21.6 43.2,21.6 34.6,2.2 62.8,-21.6 65,-56.3 l 4.3,-73.5 c 155.8,-56.3 333.2,-64.9 493.3,-21.6 12.9,192.5 0,402.4 -65,586.3 -105.9,-10.8 -212,-10.8 -315.9,4.3 4.4,-30.3 26.1,-62.7 47.7,-95.2 41.1,-58.4 82.2,-114.7 49.7,-181.7 4.4,-8.7 6.5,-15.2 6.5,-23.8 0,-30.3 -23.8,-54.1 -54,-54.1 -28.2,0 -52,23.8 -52,54.1 0,28.1 23.8,51.9 52,51.9 h 2.1 c 10.8,41.1 -17.3,82.2 -45.5,123.3 -21.6,30.3 -41.1,58.4 -51.9,88.7 -30.2,-64.9 -15.1,-147.1 -99.5,-179.5 -6.5,-21.7 -26,-36.8 -51.9,-36.8 -28.1,0 -51.9,21.6 -51.9,51.9 0,28.1 23.8,51.9 51.9,51.9 v 0" /></g></g></g></g></svg>