<?xml version="1.0" encoding="UTF-8" standalone="no"?>
<svg
   xmlns="http://www.w3.org/2000/svg"
   viewBox="275 -19 286 286"
   height="128"
   width="128"
   xml:space="preserve"
   id="svg2"
   version="1.1"><g
     transform="matrix(1.3333333,0,0,-1.3333333,0,2666.6667)"
     id="g10"><g
       transform="scale(0.1)"
       id="g12"><g
         transform="scale(1.08831)"
         id="g26"><g
         transform="scale(1.13063)"
         id="g1758"><path
           id="path1760"
           style="fill:#2a2523;fill-opacity:1;fill-rule:nonzero;stroke:none"
           d="m 2809.98,16001.2 c 62.68,-6.2 125.35,-18.8 185.95,-41.7 22.97,-8.4 35.51,-23 41.78,-48.1 75.21,-309.2 158.78,-643.5 342.62,-906.7 20.9,-29.3 12.55,-68.9 -16.7,-87.7 l -213.1,-144.2 c -29.26,-18.8 -66.87,-10.5 -85.66,18.8 -16.72,25.1 -33.43,52.2 -50.14,77.3 -296.67,-71 -635.13,-71 -929.7,0 -16.72,-27.2 -33.43,-52.2 -50.14,-79.4 -20.89,-33.4 -60.58,-33.4 -89.83,-12.5 l -211.02,142 c -33.42,23 -31.34,60.6 -10.45,92 85.67,123.2 152.52,273.6 204.75,428.2 56.4,158.8 98.19,326 133.71,476.4 6.26,23 22.98,37.6 43.87,43.9 58.5,22.9 119.09,35.5 179.67,41.7 77.31,298.8 442.92,292.5 524.39,0 v 0" /></g><g
         transform="scale(1.12381)"
         id="g1762"><path
           id="path1764"
           style="fill:#ffffff;fill-opacity:1;fill-rule:nonzero;stroke:none"
           d="m 2404.54,15934.3 c 98.79,63 220.7,63 321.59,0 -16.82,361.5 -323.7,365.7 -321.59,0 v 0" /></g><g
         transform="scale(1.10121)"
         id="g1766"><path
           id="path1768"
           style="fill:#ffffff;fill-opacity:1;fill-rule:nonzero;stroke:none"
           d="m 2644.81,16182 v -840.8 c 154.43,2.1 313.17,17.1 463.32,57.9 0,0 0,0 2.14,2.1 v 0 0 0 0 0 c -85.79,193.1 -165.16,377.6 -197.33,594.2 -2.15,12.9 8.58,27.9 23.59,30 12.87,2.2 27.89,-8.5 30.03,-23.6 36.47,-244.5 137.28,-476.2 250.96,-692.8 l 115.84,77.2 c -169.46,268.1 -255.26,587.8 -330.33,892.3 -32.18,10.8 -64.36,17.2 -96.53,21.5 0,-21.5 2.14,-42.9 2.14,-62.2 0,-45.1 -4.28,-85.8 -8.58,-120.1 -6.43,-57.9 -79.36,-75.1 -111.53,-30.1 -36.47,45.1 -85.81,83.7 -143.72,94.4 v 0" /></g><g
         transform="scale(1.05165)"
         id="g1770"><path
           id="path1772"
           style="fill:#2a2523;fill-opacity:1;fill-rule:nonzero;stroke:none"
           d="m 2836.83,16261.8 c 2.25,18 17.97,27 33.7,24.7 71.88,-6.7 143.74,-4.5 215.62,11.3 13.48,2.2 29.2,-6.8 31.45,-22.5 4.49,-15.7 -4.49,-29.2 -20.22,-33.7 -76.37,-15.7 -154.97,-20.2 -233.59,-11.2 -15.72,2.2 -29.21,15.7 -26.96,31.4 v 0" /></g><g
         transform="scale(1.10121)"
         id="g1774"><path
           id="path1776"
           style="fill:#ffffff;fill-opacity:1;fill-rule:nonzero;stroke:none"
           d="m 2574.03,16182 v -840.8 c -154.45,2.1 -313.17,17.1 -461.19,57.9 -2.14,0 -2.14,0 -4.29,2.1 v 0 0 0 0 0 c 87.95,193.1 165.17,377.6 197.34,594.2 2.15,12.9 -6.43,27.9 -21.45,30 -15.01,2.2 -30.02,-8.5 -32.18,-23.6 -36.46,-244.5 -137.27,-476.2 -250.96,-692.8 l -115.84,77.2 c 169.46,268.1 255.27,587.8 330.34,892.3 32.18,10.8 64.35,17.2 98.68,21.5 -2.15,-21.5 -2.15,-42.9 -2.15,-62.2 0,-45.1 2.15,-85.8 6.43,-120.1 6.44,-57.9 79.37,-75.1 113.69,-30.1 34.32,45.1 83.66,83.7 141.58,94.4 v 0" /></g><path
         id="path1778"
         style="fill:#ffffff;fill-opacity:1;fill-rule:nonzero;stroke:none"
         d="m 2884.14,3810.1 c 66.14,42.5 82.67,66.1 75.59,80.3 -9.45,14.2 -42.52,21.3 -75.59,21.3 -35.43,0 -68.51,-7.1 -75.59,-21.3 -9.45,-14.2 9.45,-37.8 75.59,-80.3 v 0" /><path
         id="path1780"
         style="fill:#ffffff;fill-opacity:1;fill-rule:nonzero;stroke:none"
         d="m 3136.88,3824.3 c 122.83,-92.2 219.68,-217.4 295.27,-352 l 259.83,68.5 28.35,226.8 -576.36,118.1 c -2.36,-18.9 -4.73,-37.8 -7.09,-61.4 v 0" /><path
         id="path1782"
         style="fill:#ffffff;fill-opacity:1;fill-rule:nonzero;stroke:none"
         d="m 2416.44,2692.8 h 933.03 c -18.89,236.2 -11.81,472.4 16.54,708.6 2.36,14.2 4.72,28.4 14.17,42.6 -66.14,118.1 -151.17,229.1 -257.47,316.5 -7.08,-33.1 -18.9,-66.2 -30.71,-96.9 -16.53,-33 -37.79,-30.7 -59.05,-11.8 -16.53,14.2 -56.69,44.9 -120.46,68.5 v -207.8 c 0,-16.6 -11.82,-30.7 -28.35,-30.7 -16.54,0 -30.71,14.1 -30.71,30.7 v 207.8 c -73.22,-26 -115.74,-63.8 -125.19,-73.2 -14.17,-14.2 -40.16,-11.8 -49.61,7.1 -14.17,33.1 -25.98,70.8 -35.43,106.3 -103.93,-87.4 -188.97,-198.4 -257.47,-316.5 7.09,-9.5 11.81,-21.3 14.17,-33.1 28.35,-238.6 37.8,-479.5 16.54,-718.1 v 0" /><path
         id="path1784"
         style="fill:#ffffff;fill-opacity:1;fill-rule:nonzero;stroke:none"
         d="m 2884.14,3810.1 c 66.14,42.5 82.67,66.1 75.59,80.3 -9.45,14.2 -42.52,21.3 -75.59,21.3 -35.43,0 -68.51,-7.1 -75.59,-21.3 -9.45,-14.2 9.45,-37.8 75.59,-80.3 v 0" /><path
         id="path1786"
         style="fill:#ffffff;fill-opacity:1;fill-rule:nonzero;stroke:none"
         d="m 3136.88,3824.3 c 122.83,-92.2 219.68,-217.4 295.27,-352 l 259.83,68.5 28.35,226.8 -576.36,118.1 c -2.36,-18.9 -4.73,-37.8 -7.09,-61.4 v 0" /><path
         id="path1788"
         style="fill:#ffffff;fill-opacity:1;fill-rule:nonzero;stroke:none"
         d="m 2416.44,2692.8 h 933.03 c -18.89,236.2 -11.81,472.4 16.54,708.6 2.36,14.2 4.72,28.4 14.17,42.6 -66.14,118.1 -151.17,229.1 -257.47,316.5 -7.08,-33.1 -18.9,-66.2 -30.71,-96.9 -16.53,-33 -37.79,-30.7 -59.05,-11.8 -16.53,14.2 -56.69,44.9 -120.46,68.5 v -207.8 c 0,-16.6 -11.82,-30.7 -28.35,-30.7 -16.54,0 -30.71,14.1 -30.71,30.7 v 207.8 c -73.22,-26 -115.74,-63.8 -125.19,-73.2 -14.17,-14.2 -40.16,-11.8 -49.61,7.1 -14.17,33.1 -25.98,70.8 -35.43,106.3 -103.93,-87.4 -188.97,-198.4 -257.47,-316.5 7.09,-9.5 11.81,-21.3 14.17,-33.1 28.35,-238.6 37.8,-479.5 16.54,-718.1 v 0" /><path
         id="path1790"
         style="fill:#ffffff;fill-opacity:1;fill-rule:nonzero;stroke:none"
         d="m 2624.31,3824.3 c -122.84,-92.2 -222.04,-217.4 -295.27,-352 l -262.19,68.5 -28.35,226.8 576.36,118.1 c 2.36,-18.9 4.72,-37.8 9.45,-61.4 v 0" /></g></g></g></svg>