<?xml version="1.0" encoding="UTF-8" standalone="no"?>
<svg
   xmlns="http://www.w3.org/2000/svg"
   viewBox="1306 -19 286 286"
   height="128"
   width="128"
   xml:space="preserve"
   id="svg2"
   version="1.1"><g
     transform="matrix(1.3333333,0,0,-1.3333333,0,2666.6667)"
     id="g10"><g
       transform="scale(0.1)"
       id="g12"><g
         transform="scale(1.08831)"
         id="g26"><g
         transform="scale(1.11947)"
         id="g814"><path
           id="path816"
           style="fill:#2a2523;fill-opacity:1;fill-rule:nonzero;stroke:none"
           d="m 8364.17,16300 h 1133.12 c 99.15,0 181.42,-71.7 181.42,-175.1 V 15169 c 0,-97 -78.07,-175.1 -173.03,-175.1 H 8364.17 c -99.17,0 -177.25,75.9 -177.25,175.1 v 953.8 c 0,101.2 75.97,177.2 177.25,177.2 v 0" /></g><g
         transform="scale(1.11164)"
         id="g818"><path
           id="path820"
           style="fill:#ffffff;fill-opacity:1;fill-rule:nonzero;stroke:none"
           d="M 9515.21,15214.2 V 16300 h -63.69 v -1085.8 h 63.69" /></g><g
         transform="scale(1.11164)"
         id="g822"><path
           id="path824"
           style="fill:#ffffff;fill-opacity:1;fill-rule:nonzero;stroke:none"
           d="m 9564.14,16300 v -1085.8 h 8.46 c 34,0 59.55,27.6 59.55,61.6 v 962.6 c 0,34 -23.39,61.6 -59.55,61.6 h -8.46" /></g><g
         transform="scale(1.11164)"
         id="g826"><path
           id="path828"
           style="fill:#ffffff;fill-opacity:1;fill-rule:nonzero;stroke:none"
           d="m 9217.72,16300 c -23.3,-38.2 -72.24,-138.1 -67.92,-323 0,-78.6 -27.71,-153 -85.01,-208.2 -176.4,-176.4 -497.25,-65.9 -497.25,208.2 0,108.4 -10.63,218.9 21.25,323 h -167.88 c -36.11,0 -61.61,-23.4 -61.61,-61.6 v -962.6 c 0,-38.2 27.62,-61.6 63.75,-61.6 h 979.53 V 16300 h -184.86" /></g><g
         transform="scale(1.11164)"
         id="g830"><path
           id="path832"
           style="fill:#ffffff;fill-opacity:1;fill-rule:nonzero;stroke:none"
           d="m 8709.9,16300 c -42.49,-102 -27.62,-214.6 -27.62,-320.9 0,-167.8 193.37,-238 301.74,-129.6 33.99,34 50.99,80.8 50.99,125.4 -4.22,150.9 25.46,257.1 55.24,325.1 H 8709.9" /></g><g
         transform="scale(1.07788)"
         id="g834"><path
           id="path836"
           style="fill:#2a2523;fill-opacity:1;fill-rule:nonzero;stroke:none"
           d="m 8686.9,16273.7 c 0,15.3 10.96,26.3 24.11,26.3 15.34,0 26.3,-11 26.3,-26.3 v -390.1 c 0,-35 2.19,-54.8 10.95,-65.7 8.77,-8.8 26.3,-11 61.37,-11 149.01,4.4 692.48,0 694.7,0 13.09,0 24.13,-10.9 24.13,-26.3 0,-13.1 -11.04,-24.1 -24.13,-24.1 -2.22,0 -545.69,4.4 -694.7,0 -48.22,-2.2 -78.9,6.6 -98.62,28.5 -19.73,19.7 -24.11,50.4 -24.11,98.6 v 390.1" /></g></g></g></g></svg>