<?xml version="1.0" encoding="UTF-8" standalone="no"?>
<svg
   xmlns="http://www.w3.org/2000/svg"
   viewBox="1651 2042 286 286"
   height="128"
   width="128"
   xml:space="preserve"
   id="svg2"
   version="1.1"><g
     transform="matrix(1.3333333,0,0,-1.3333333,0,2666.6667)"
     id="g10"><g
       transform="scale(0.1)"
       id="g12"><g
         transform="scale(1.08831)"
         id="g26"><path
         id="path52"
         style="fill:#2a2523;fill-opacity:1;fill-rule:nonzero;stroke:none"
         d="m 12578.2,4010.9 c 37.8,-2.4 323.7,-33.1 444.1,-349.6 111,-292.9 292.9,-656.7 292.9,-659.1 18.9,-35.4 4.7,-75.5 -30.7,-94.4 l -255.1,-139.4 c -37.8,-21.3 -77.9,-2.4 -99.2,33.1 l -92.1,174.8 v -250.4 c 0,-42.5 -35.5,-70.9 -75.6,-70.9 h -791.3 c -42.5,0 -75.6,35.4 -70.9,75.6 v 245.7 l -96.8,-179.6 c -16.6,-33 -61.4,-47.2 -94.5,-28.3 -85,47.2 -172.4,94.5 -257.5,141.7 -35.4,18.9 -44.9,61.4 -28.3,96.9 16.5,33 186.6,375.5 292.9,654.3 129.9,340.1 448.8,349.6 448.8,349.6 37.8,0 68.5,-26 73.2,-63.8 18.9,-146.5 245.7,-153.5 262.2,0 2.4,37.8 37.8,66.1 77.9,63.8 v 0" /><path
         id="path54"
         style="fill:#ffffff;fill-opacity:1;fill-rule:nonzero;stroke:none"
         d="m 12743.6,3805.4 c -113.4,-326 -635.4,-323.6 -755.9,-4.8 -52,-40.1 -103.9,-99.2 -139.4,-188.9 -85,-226.8 -212.5,-493.7 -269.2,-611.8 l 134.6,-73.2 193.7,363.7 c 11.8,23.6 35.4,37.8 63.8,37.8 37.8,0 70.8,-30.7 70.8,-70.8 v -460.7 h 654.3 v 460.7 c 0,25.9 14.2,49.6 37.8,63.7 35.5,16.6 78,4.8 94.5,-30.7 l 196.1,-363.7 134.6,73.2 c -56.7,118.1 -184.2,385 -269.3,611.8 -37.8,94.5 -92.1,155.9 -146.4,193.7 v 0" /><path
         id="path56"
         style="fill:#ffffff;fill-opacity:1;fill-rule:nonzero;stroke:none"
         d="m 12039.7,3831.3 c 96.8,-278.7 559.8,-283.4 649.6,4.8 -23.7,11.8 -47.3,18.9 -66.2,23.6 -82.7,-226.8 -420.4,-217.3 -507.8,0 -21.3,-4.7 -47.3,-14.2 -75.6,-28.4 v 0" /><path
         id="path58"
         style="fill:#2a2523;fill-opacity:1;fill-rule:nonzero;stroke:none"
         d="m 13095.5,2695.2 c -14.1,-7.1 -33,-2.4 -40.1,14.1 -9.5,14.2 -2.4,33.1 11.8,40.2 l 222,120.5 c 14.2,7.1 33.1,2.3 42.6,-14.2 7,-14.2 2.3,-33.1 -14.2,-40.2 l -222.1,-120.4" /><path
         id="path60"
         style="fill:#2a2523;fill-opacity:1;fill-rule:nonzero;stroke:none"
         d="m 11678.3,2747.1 c 14.2,-7.1 18.9,-25.9 11.8,-40.1 -9.5,-14.2 -26,-21.3 -42.5,-11.8 l -222.1,118.1 c -14.1,9.4 -21.2,26 -11.8,42.5 7.1,14.2 26,18.9 40.2,11.8 l 224.4,-120.5" /></g></g></g></svg>