<?xml version="1.0" encoding="UTF-8" standalone="no"?>
<svg
   xmlns="http://www.w3.org/2000/svg"
   viewBox="963 2050 286 286"
   height="128"
   width="128"
   xml:space="preserve"
   id="svg2"
   version="1.1"><g
     transform="matrix(1.3333333,0,0,-1.3333333,0,2666.6667)"
     id="g10"><g
       transform="scale(0.1)"
       id="g12"><g
         transform="scale(1.08831)"
         id="g26"><path
         id="path76"
         style="fill:#2a2523;fill-opacity:1;fill-rule:nonzero;stroke:none"
         d="M 8342.98,2895.9 H 6937.52 c -302.35,0 -333.06,271.7 -118.11,418.1 229.13,155.9 574,347.3 779.5,432.3 141.73,59.1 243.3,-14.2 349.6,-103.9 134.63,-115.8 233.84,-73.2 363.76,40.1 30.71,28.4 75.59,40.2 108.66,2.4 134.64,-158.3 151.17,-321.3 153.53,-522 0,-160.7 -59.05,-267 -231.48,-267 v 0" /><path
         id="path78"
         style="fill:#ffffff;fill-opacity:1;fill-rule:nonzero;stroke:none"
         d="m 8040.63,3035.3 h 274 c 141.73,0 129.92,113.4 118.11,229.1 -151.18,-30.7 -288.18,-113.3 -392.11,-229.1 v 0" /><path
         id="path80"
         style="fill:#2a2523;fill-opacity:1;fill-rule:nonzero;stroke:none"
         d="m 6887.92,2799.1 c -16.54,0 -30.71,14.2 -30.71,30.7 0,16.5 14.17,28.4 30.71,28.4 h 1497.57 c 16.54,0 30.72,-11.9 30.72,-28.4 0,-16.5 -14.18,-30.7 -30.72,-30.7 H 6887.92" /><path
         id="path82"
         style="fill:#ffffff;fill-opacity:1;fill-rule:nonzero;stroke:none"
         d="m 7275.3,3432.1 c -21.26,-14.1 -42.52,-25.9 -61.41,-37.7 l 49.6,-108.7 c 30.71,-59.1 89.76,-23.6 63.78,30.7 l -51.97,115.7" /><path
         id="path84"
         style="fill:#ffffff;fill-opacity:1;fill-rule:nonzero;stroke:none"
         d="m 7386.32,3495.9 c -18.89,-11.8 -37.79,-23.6 -56.69,-35.4 l 49.6,-113.4 c 25.99,-56.7 89.77,-16.5 61.42,35.4 l -54.33,113.4" /><path
         id="path86"
         style="fill:#ffffff;fill-opacity:1;fill-rule:nonzero;stroke:none"
         d="m 7502.07,3555 c -21.26,-9.5 -40.16,-21.3 -61.42,-30.7 l 49.6,-106.3 c 28.35,-54.4 89.76,-14.2 63.78,37.8 l -51.96,99.2" /><path
         id="path88"
         style="fill:#ffffff;fill-opacity:1;fill-rule:nonzero;stroke:none"
         d="m 7617.81,3609.3 c -18.9,-7.1 -40.16,-16.5 -63.78,-28.3 l 51.97,-96.9 c 25.98,-52 89.76,-11.8 61.41,40.2 l -49.6,85" /><path
         id="path90"
         style="fill:#ffffff;fill-opacity:1;fill-rule:nonzero;stroke:none"
         d="m 6994.21,3035.3 h 968.47 c 115.74,146.5 281.09,252.8 467.7,290.6 -9.45,77.9 -30.71,151.1 -75.59,217.3 -181.88,-134.7 -321.25,-153.6 -496.04,-7.1 -47.25,40.1 -113.39,101.6 -181.89,89.7 l 40.16,-73.2 c 51.96,-89.7 0,-189 -99.21,-160.6 -11.81,-47.3 -61.41,-82.7 -113.38,-68.5 -14.18,-49.6 -63.78,-82.7 -113.39,-68.5 -7.08,-89.8 -129.91,-99.2 -170.07,-16.5 l -59.05,125.1 c -80.31,-49.6 -167.71,-94.4 -245.66,-151.1 -113.38,-87.4 -111.02,-177.2 77.95,-177.2 v 0" /></g></g></g></svg>