<?xml version="1.0" encoding="UTF-8" standalone="no"?>
<svg
   xmlns="http://www.w3.org/2000/svg"
   viewBox="1994 1700 286 286"
   height="128"
   width="128"
   xml:space="preserve"
   id="svg2"
   version="1.1"><g
     transform="matrix(1.3333333,0,0,-1.3333333,0,2666.6667)"
     id="g10"><g
       transform="scale(0.1)"
       id="g12"><g
         transform="scale(1.08831)"
         id="g26"><path
         id="path128"
         style="fill:#2a2523;fill-opacity:1;fill-rule:nonzero;stroke:none"
         d="m 14694.7,4811.6 -245.7,243.3 c -14.1,16.6 -23.6,33.1 -23.6,56.7 2.4,37.8 16.5,564.6 28.4,774.8 9.4,167.7 66.1,266.9 101.5,316.5 l -56.7,186.6 h -210.2 c -35.4,0 -66.1,30.7 -66.1,66.2 0,37.7 30.7,66.1 66.1,66.1 304.7,0 607.1,0 909.4,0 37.8,0 66.2,-28.4 66.2,-66.1 0,-35.5 -28.4,-66.2 -66.2,-66.2 H 14990 l -56.7,-186.6 c 35.4,-49.6 92.1,-148.8 101.5,-316.5 11.9,-203.2 26,-701.6 28.4,-770.1 0,-25.9 -7.1,-42.5 -26,-61.4 l -245.7,-248 c -28.3,-28.3 -70.8,-21.3 -96.8,4.7 v 0" /><path
         id="path130"
         style="fill:#ffffff;fill-opacity:1;fill-rule:nonzero;stroke:none"
         d="m 14557.7,5132.9 186.6,-184.3 184.2,184.3 c -2.3,115.7 -14.1,552.7 -25.9,746.4 -7.1,137 -49.6,210.2 -70.9,240.9 h -174.8 c -21.3,-30.7 -63.8,-103.9 -70.9,-240.9 -11.8,-193.7 -23.6,-630.7 -28.3,-746.4 v 0" /><path
         id="path132"
         style="fill:#ffffff;fill-opacity:1;fill-rule:nonzero;stroke:none"
         d="m 14678.2,6188.7 h 139.3 l 49.6,276.4 h -252.7 l 63.8,-276.4" /><path
         id="path134"
         style="fill:#2a2523;fill-opacity:1;fill-rule:nonzero;stroke:none"
         d="m 14803.4,5858 c 0,16.6 11.8,30.7 28.3,30.7 14.2,0 28.3,-11.8 28.3,-28.3 l 26,-687.4 c 0,-9.4 -4.7,-16.5 -11.8,-23.6 l -115.7,-108.7 c -9.5,-9.4 -28.4,-9.4 -40.2,2.4 -9.4,9.5 -9.4,28.4 2.4,40.2 l 106.3,101.5 -23.6,673.2" /></g></g></g></svg>