<?xml version="1.0" encoding="UTF-8" standalone="no"?>
<svg
   xmlns="http://www.w3.org/2000/svg"
   viewBox="1995 1013 286 286"
   height="128"
   width="128"
   xml:space="preserve"
   id="svg2"
   version="1.1"><g
     transform="matrix(1.3333333,0,0,-1.3333333,0,2666.6667)"
     id="g10"><g
       transform="scale(0.1)"
       id="g12"><g
         transform="scale(1.08831)"
         id="g26"><path
         id="path396"
         style="fill:#ffffff;fill-opacity:1;fill-rule:nonzero;stroke:none"
         d="m 15027.8,11172.8 c 106.2,-23.6 210.2,-56.7 311.8,-99.2 21.2,-9.5 30.7,-26 40.1,-44.9 89.8,-205.5 118.1,-429.9 144.1,-633 28.3,-219.7 52,-411.1 148.8,-491.4 30.7,-25.9 33.1,-73.2 4.7,-101.5 -77.9,-89.8 -250.4,-144.1 -375.5,-137 -37.8,0 -68.5,33 -66.2,70.8 7.1,174.8 -4.7,373.2 -44.9,559.8 -9.4,-28.3 -16.5,-56.6 -23.6,-85 -51.9,-172.4 -96.8,-328.3 16.6,-536.2 21.2,-40.1 11.8,-92.1 -40.2,-106.3 -248,-70.8 -550.4,-75.6 -803.1,-4.7 -42.5,14.2 -73.2,56.7 -49.6,101.6 103.9,193.7 56.7,373.2 9.4,559.8 -4.7,21.2 -11.8,40.1 -16.5,61.4 -21.3,-101.6 -33.1,-210.2 -40.2,-314.2 -4.7,-73.2 -4.7,-148.8 -2.3,-222 2.3,-68.5 -40.2,-89.8 -99.2,-82.7 -118.1,9.5 -252.8,42.5 -330.7,134.7 -26,30.7 -28.4,75.6 2.3,101.5 94.5,80.3 115.8,271.7 144.1,491.4 26,203.1 52,429.9 144.1,637.7 4.7,16.6 18.9,33.1 35.4,40.2 96.9,42.5 198.5,75.6 302.4,96.8 75.6,155.9 510.2,153.6 588.2,2.4 v 0" /><path
         id="path398"
         style="fill:#2a2523;fill-opacity:1;fill-rule:nonzero;stroke:none"
         d="m 14690,10698 c -18.9,-14.2 -18.9,-33.1 0,-47.2 26,-18.9 70.8,-18.9 96.8,0 18.9,14.1 18.9,33 0,47.2 -26,18.9 -70.8,18.9 -96.8,0 v 0" /><path
         id="path400"
         style="fill:#2a2523;fill-opacity:1;fill-rule:nonzero;stroke:none"
         d="m 14860,10662.6 c -7,-49.6 -59,-80.3 -103.9,-85.1 0,-61.4 0,-245.6 101.6,-167.7 51.9,37.8 103.9,106.3 120.4,146.5 16.6,40.1 -96.8,94.5 -118.1,106.3 v 0" /><path
         id="path402"
         style="fill:#2a2523;fill-opacity:1;fill-rule:nonzero;stroke:none"
         d="m 14515.2,10542.1 c 9.4,-18.9 40.1,-73.2 75.6,-111 49.6,-54.3 66.1,-26 96.8,21.2 7.1,14.2 11.8,21.3 14.2,30.8 -4.7,35.4 -4.7,70.8 -4.7,99.2 -30.7,9.4 -56.7,25.9 -70.9,54.3 -26,-9.5 -137,-47.2 -111,-94.5 v 0" /><path
         id="path404"
         style="fill:#2a2523;fill-opacity:1;fill-rule:nonzero;stroke:none"
         d="m 14373.4,11012.2 c 40.2,-125.2 115.8,-262.2 238.6,-318.9 11.8,16.5 21.3,35.4 35.5,47.2 -9.5,4.8 -21.3,9.5 -30.8,16.6 -73.2,44.8 -146.4,134.6 -177.1,271.6 -21.3,-4.7 -42.5,-9.4 -66.2,-16.5 v 0" /><path
         id="path406"
         style="fill:#2a2523;fill-opacity:1;fill-rule:nonzero;stroke:none"
         d="m 14876.6,10719.3 c 118.1,54.3 198.4,167.7 240.9,288.1 -30.7,7.1 -61.4,16.6 -92.1,23.7 -26,-118.1 -92.1,-231.5 -203.2,-285.8 18.9,-7.1 35.5,-16.6 54.4,-26 v 0" /><path
         id="path408"
         style="fill:#2a2523;fill-opacity:1;fill-rule:nonzero;stroke:none"
         d="m 15174.2,10988.5 c -42.5,-122.8 -122.8,-236.2 -236.2,-302.3 63.8,-40.2 118.1,-94.5 96.8,-151.2 -18.9,-49.6 -82.6,-127.5 -141.7,-172.4 -66.1,-52 -132.3,-52 -170.1,37.8 -47.2,-85.1 -113.3,-78 -177.1,-9.5 -37.8,42.5 -70.9,101.6 -82.7,125.2 -37.8,66.2 21.3,118.1 80.3,148.8 -113.4,73.3 -186.6,203.2 -226.7,330.7 -33.1,-11.8 -66.2,-23.6 -96.9,-37.8 -75.6,-184.2 -101.6,-392.1 -125.2,-578.7 -26,-210.2 -47.2,-399.2 -137,-519.6 44.9,-26 94.5,-40.2 144.1,-47.3 0,56.7 0,111 4.7,167.7 11.8,222.1 54.4,453.5 137,642.5 14.2,35.5 56.7,52 89.8,37.8 28.3,-11.8 44.9,-40.1 42.5,-68.5 0,-111 28.4,-222 59.1,-330.7 49.6,-189 96.8,-373.2 16.5,-581.1 186.6,-35.4 385,-33 574,2.4 -94.5,219.7 -44.9,387.4 7.1,569.3 30.7,96.8 56.7,200.7 63.8,318.8 4.7,92.2 103.9,96.9 141.7,21.3 30.7,-61.4 47.2,-155.9 63.8,-219.7 47.2,-186.6 75.5,-375.5 73.2,-559.8 51.9,7.1 106.3,21.3 153.5,47.3 -89.7,120.4 -113.4,307 -141.7,519.6 -23.6,186.6 -49.6,392.1 -127.6,578.7 -28.3,9.5 -56.7,21.3 -85,30.7 v 0" /><path
         id="path410"
         style="fill:#2a2523;fill-opacity:1;fill-rule:nonzero;stroke:none"
         d="m 14576.6,11054.7 c 11.8,-52 30.7,-94.5 54.3,-125.2 80.3,-111 181.9,-59.1 236.2,56.7 7.1,16.5 14.2,37.8 21.3,59 37.8,148.9 -342.5,137 -311.8,9.5 v 0" /></g></g></g></svg>