<?xml version="1.0" encoding="UTF-8" standalone="no"?>
<svg
   xmlns="http://www.w3.org/2000/svg"
   viewBox="274 1359 286 286"
   height="128"
   width="128"
   xml:space="preserve"
   id="svg2"
   version="1.1"><g
     transform="matrix(1.3333333,0,0,-1.3333333,0,2666.6667)"
     id="g10"><g
       transform="scale(0.1)"
       id="g12"><g
         transform="scale(1.08831)"
         id="g26"><path
         id="path342"
         style="fill:#ffffff;fill-opacity:1;fill-rule:nonzero;stroke:none"
         d="m 3181.76,8876.8 c 113.39,4.7 222.04,-18.9 311.8,-125.2 21.26,-23.6 21.26,-61.4 2.36,-85 -18.89,-30.7 -212.59,-326 -61.41,-474.8 18.9,-18.9 25.98,-44.9 18.9,-68.5 -33.07,-141.7 -44.88,-285.8 -42.52,-427.5 2.36,-141.8 16.53,-283.5 44.88,-427.6 9.45,-49.6 -18.89,-89.7 -73.23,-89.7 h -486.59 -517.3 c -54.33,0 -75.59,47.2 -66.15,89.7 25.99,144.1 42.52,285.8 42.52,427.6 2.37,144 -9.44,288.1 -42.52,429.9 -7.08,28.3 4.73,51.9 23.63,70.8 151.17,158.3 -66.14,470.1 -68.5,472.4 -18.9,28.4 -11.81,63.8 9.45,87.4 129.91,151.2 307.07,127.6 472.42,106.3 158.26,-21.2 266.92,9.5 432.26,14.2 v 0" /><path
         id="path344"
         style="fill:#2a2523;fill-opacity:1;fill-rule:nonzero;stroke:none"
         d="m 2633.75,8737.5 c 18.9,-73.3 77.95,-132.3 137.01,-193.7 44.87,-47.3 92.12,-92.2 122.82,-148.9 33.08,56.7 77.96,104 122.84,148.9 59.05,61.4 118.1,120.4 137,193.7 -167.71,-14.2 -259.84,-33.1 -420.46,-11.9 -33.07,4.8 -66.14,9.5 -99.21,11.9 v 0" /><path
         id="path346"
         style="fill:#2a2523;fill-opacity:1;fill-rule:nonzero;stroke:none"
         d="m 3290.42,7428.8 h -814.93 c -4.72,-37.8 -9.45,-75.5 -14.17,-113.3 h 434.63 411.01 c -7.09,37.8 -11.81,75.5 -16.54,113.3 v 0" /><path
         id="path348"
         style="fill:#2a2523;fill-opacity:1;fill-rule:nonzero;stroke:none"
         d="m 2482.58,7490.3 h 800.75 c -7.08,66.1 -9.44,134.6 -11.81,203.1 -2.36,144.1 9.45,285.8 40.16,427.5 -153.54,189 -23.62,463 40.16,576.4 -40.16,28.3 -85.04,40.2 -134.64,42.5 -18.9,-94.5 -87.4,-165.3 -158.26,-236.2 -56.7,-59.1 -113.39,-118.1 -137.01,-189 -7.09,-26 -47.24,-28.3 -56.69,0 -21.26,70.9 -80.31,129.9 -137,189 -70.87,70.9 -139.37,141.7 -158.26,236.2 -56.69,-2.3 -111.02,-11.8 -155.9,-44.9 63.77,-111 193.69,-385 40.15,-574 30.71,-141.7 42.52,-283.4 40.16,-427.5 0,-68.5 -4.72,-137 -11.81,-203.1 v 0" /><g
         transform="scale(1.12164)"
         id="g350"><path
           id="path352"
           style="fill:#2a2523;fill-opacity:1;fill-rule:evenodd;stroke:none"
           d="M 14221.4,10310.7 H 16300 V 8232.16 h -2078.6 v 2078.54" /></g><g
         transform="scale(1.10367)"
         id="g354"><path
           id="path356"
           style="fill:#ffffff;fill-opacity:1;fill-rule:nonzero;stroke:none"
           d="m 15133.6,9688.85 c 19.3,132.69 100.6,483.65 368.2,483.65 267.4,0 346.6,-350.96 368.1,-483.65 32.1,-8.56 62.1,-25.69 83.4,-49.23 42.8,-40.66 62.1,-100.59 55.7,-158.38 40.7,-36.38 62,-85.6 85.6,-134.83 25.6,-59.93 53.5,-121.99 132.6,-126.27 38.5,0 72.8,-17.12 72.8,-62.07 v -421.66 c 0,-36.34 -27.8,-64.15 -62.1,-64.15 -485.8,0 -971.6,2.08 -1457.5,6.43 -34.2,0 -64.1,25.64 -64.1,62.06 v 415.18 c 0,36.38 21.4,70.63 64.1,70.63 85.7,-2.14 113.5,62.06 143.5,126.27 19.3,44.95 38.5,87.76 72.7,124.13 -8.5,59.93 10.7,119.86 55.7,162.66 21.4,23.54 49.2,40.67 81.3,49.23 v 0" /></g><g
         transform="scale(1.07773)"
         id="g358"><path
           id="path360"
           style="fill:#2a2523;fill-opacity:1;fill-rule:nonzero;stroke:none"
           d="m 16131.2,9797.11 c -37.2,-37.26 -37.2,-94.24 0,-131.51 37.3,-37.25 94.3,-37.25 131.6,0 37.2,37.27 37.2,94.25 0,131.51 -37.3,37.25 -94.3,37.25 -131.6,0 v 0" /></g><g
         transform="scale(1.03165)"
         id="g362"><path
           id="path364"
           style="fill:#2a2523;fill-opacity:1;fill-rule:nonzero;stroke:none"
           d="m 16300,9779.07 h -107.6 v -43.51 c 0,-13.73 4.6,-27.47 16,-38.92 20.5,-20.59 55,-20.59 75.5,0 11.4,9.16 16.1,22.89 16.1,38.92 v 43.51" /></g><g
         transform="scale(1.03165)"
         id="g366"><path
           id="path368"
           style="fill:#2a2523;fill-opacity:1;fill-rule:nonzero;stroke:none"
           d="m 16192.4,9838.6 h 107.6 v 125.93 c -34.4,-9.16 -71.1,-9.16 -107.6,0 V 9838.6" /></g><g
         transform="scale(1.07425)"
         id="g370"><path
           id="path372"
           style="fill:#2a2523;fill-opacity:1;fill-rule:nonzero;stroke:none"
           d="m 16300,9391.27 h -103.3 v -41.78 c 0,-15.4 4.3,-28.59 15.3,-37.39 19.9,-19.77 52.8,-19.77 72.6,0 11,8.8 15.4,21.99 15.4,37.39 v 41.78" /></g><g
         transform="scale(1.07425)"
         id="g374"><path
           id="path376"
           style="fill:#2a2523;fill-opacity:1;fill-rule:nonzero;stroke:none"
           d="m 16196.7,9448.43 h 103.3 v 120.94 c -33,-8.8 -70.4,-8.8 -103.3,0 v -120.94" /></g><g
         transform="scale(1.05918)"
         id="g378"><path
           id="path380"
           style="fill:#2a2523;fill-opacity:1;fill-rule:nonzero;stroke:none"
           d="m 16157.3,10329.9 c -120.5,0 -149.5,-298.8 -131.7,-385.77 84.8,-2.24 171.8,-2.24 256.6,-2.24 17.8,87.01 -2.3,388.01 -124.9,388.01 v 0" /></g><g
         transform="scale(1.06599)"
         id="g382"><path
           id="path384"
           style="fill:#2a2523;fill-opacity:1;fill-rule:nonzero;stroke:none"
           d="m 15861.3,9989.18 c 17.7,135.12 68.6,330.12 192.7,330.12 126.3,0 172.8,-201.6 186.1,-332.34 17.8,17.74 37.8,31.04 59.9,39.94 -17.7,117.4 -79.7,376.6 -250.4,376.6 -170.6,0 -232.6,-259.2 -250.4,-376.6 22.2,-8.9 44.3,-22.2 62.1,-37.72 v 0" /></g><g
         transform="scale(1.09512)"
         id="g386"><path
           id="path388"
           style="fill:#2a2523;fill-opacity:1;fill-rule:nonzero;stroke:none"
           d="m 16300,8867.14 v 304.16 c -116.5,21.57 -157.5,110.01 -196.3,196.28 -10.8,23.73 -19.4,45.29 -32.3,64.71 -8.7,-8.62 -17.3,-15.1 -28.1,-21.57 V 9171.3 c 0,-28.04 -10.8,-56.06 -30.2,-75.52 -41,-40.99 -107.9,-40.99 -148.8,0 -19.4,19.46 -30.2,47.48 -30.2,75.52 0,79.81 0,159.61 0,239.42 -30.2,19.41 -54,47.45 -69,77.65 -95,0 -187.7,2.15 -280.4,4.31 -17.3,-34.51 -43.1,-64.71 -75.6,-84.12 V 9171.3 c 0,-28.04 -8.5,-56.06 -30.1,-75.52 -41,-40.99 -107.8,-40.99 -148.8,0 -19.5,19.46 -30.3,47.48 -30.3,75.52 v 241.57 c -6.4,4.32 -12.9,8.63 -19.4,15.1 -8.6,-17.25 -17.3,-34.5 -25.9,-53.91 -38.8,-86.29 -77.6,-174.72 -196.3,-196.29 v -306.25 c 448.7,-2.19 895.2,-4.38 1341.7,-4.38 v 0" /></g><g
         transform="scale(1.03527)"
         id="g390"><path
           id="path392"
           style="fill:#2a2523;fill-opacity:1;fill-rule:nonzero;stroke:none"
           d="m 16124.3,10198.9 c -38.7,-38.8 -36.5,-98.1 0,-136.9 38.8,-38.8 98.1,-38.8 137,0 38.7,38.8 38.7,98.1 0,136.9 -38.9,38.8 -98.2,38.8 -137,0 v 0" /></g><path
         id="path394"
         style="fill:#2a2523;fill-opacity:1;fill-rule:evenodd;stroke:none"
         d="m 13579.8,11564.9 h 2329 V 9233.5 h -2329 v 2331.4" /></g></g></g></svg>