<?xml version="1.0" encoding="UTF-8" standalone="no"?>
<svg
   xmlns="http://www.w3.org/2000/svg"
   viewBox="619 670 286 286"
   height="128"
   width="128"
   xml:space="preserve"
   id="svg2"
   version="1.1"><g
     transform="matrix(1.3333333,0,0,-1.3333333,0,2666.6667)"
     id="g10"><g
       transform="scale(0.1)"
       id="g12"><g
         transform="scale(1.08831)"
         id="g26"><path
         id="path562"
         style="fill:#ffffff;fill-opacity:1;fill-rule:nonzero;stroke:none"
         d="m 5532.07,13572.7 40.15,-80.3 137,-9.5 c 236.21,-14.1 311.8,-255.1 333.06,-444 16.53,-125.2 89.76,-789 89.76,-791.3 4.72,-42.6 -28.34,-78 -75.59,-75.6 l -205.5,4.7 c -14.17,-44.9 -49.6,-96.9 -132.28,-118.1 v -61.4 c 0,-37.8 -30.71,-68.5 -68.5,-68.5 h -788.94 c -37.8,0 -70.87,30.7 -70.87,68.5 v 61.4 c -80.31,21.2 -115.74,73.2 -132.27,118.1 l -207.87,-4.7 c -47.25,-2.4 -75.59,37.8 -70.86,80.3 7.08,59 73.22,668.5 87.39,786.6 23.62,188.9 99.21,429.9 333.06,444 l 139.36,9.5 40.16,85 c 18.9,37.8 61.42,47.3 96.85,30.7 103.93,-49.6 276.36,-42.5 361.4,0 35.43,18.9 80.31,2.4 94.49,-35.4 v 0" /><path
         id="path564"
         style="fill:#2a2523;fill-opacity:1;fill-rule:nonzero;stroke:none"
         d="m 5045.47,13393.2 c 101.57,-92.1 318.89,-92.1 420.46,0 l -33.07,66.1 c -106.3,-30.7 -245.66,-33.1 -356.68,0 l -30.71,-66.1" /><path
         id="path566"
         style="fill:#2a2523;fill-opacity:1;fill-rule:nonzero;stroke:none"
         d="m 5581.67,12129.4 h -651.94 c 2.36,-9.4 0,-49.6 0,-61.4 h 649.58 l 2.36,61.4" /><path
         id="path568"
         style="fill:#2a2523;fill-opacity:1;fill-rule:nonzero;stroke:none"
         d="m 5690.33,13010.5 c -2.37,37.8 56.69,40.2 59.05,2.4 l 30.71,-699.2 c 16.53,2.4 177.16,-2.4 205.5,-2.4 -21.26,177.2 -68.5,607.1 -80.31,711 -14.18,118.1 -54.33,311.8 -205.5,323.6 l -186.61,11.8 c -59.05,-59 -144.09,-87.4 -229.13,-92.1 v -1077.1 h 359.05 c 73.22,2.4 82.67,30.7 80.31,82.7 l -33.07,739.3" /><path
         id="path570"
         style="fill:#2a2523;fill-opacity:1;fill-rule:nonzero;stroke:none"
         d="m 4766.74,13012.9 c 0,37.8 61.41,35.4 59.05,-4.7 l -40.16,-734.7 c -2.35,-49.6 9.46,-80.3 73.23,-85 122.83,0 243.3,0 366.13,0 v 1077.1 c -82.68,4.7 -170.07,33.1 -226.76,92.1 -11.81,-2.3 -162.99,-11.8 -188.97,-11.8 -148.82,-9.4 -188.97,-205.5 -203.14,-323.6 -14.18,-103.9 -61.42,-533.8 -80.31,-711 25.98,0 188.97,4.8 203.14,2.4 l 37.79,699.2" /><path
         id="path572"
         style="fill:#ffffff;fill-opacity:1;fill-rule:nonzero;stroke:none"
         d="m 5643.09,12483.8 v -130 c 0,-56.6 -42.52,-99.2 -96.85,-99.2 h -96.85 c -54.33,0 -96.85,42.6 -96.85,99.2 v 130 c 0,16.5 11.82,30.7 28.35,30.7 h 233.85 c 16.53,0 28.35,-14.2 28.35,-30.7 v 0" /><path
         id="path574"
         style="fill:#ffffff;fill-opacity:1;fill-rule:nonzero;stroke:none"
         d="m 5154.13,12483.8 v -132.3 c 0,-54.3 -44.88,-96.9 -99.21,-96.9 h -94.49 c -56.68,0 -96.85,44.9 -96.85,99.2 v 130 c 0,16.5 11.82,30.7 28.35,30.7 h 233.85 c 16.53,0 28.35,-14.2 28.35,-30.7 v 0" /><path
         id="path576"
         style="fill:#2a2523;fill-opacity:1;fill-rule:nonzero;stroke:none"
         d="m 5584.03,12353.8 v 101.6 H 5411.6 v -103.9 c 0,-21.3 16.53,-35.4 37.79,-35.4 h 96.85 c 23.62,0 37.79,16.5 37.79,37.7 v 0" /><path
         id="path578"
         style="fill:#2a2523;fill-opacity:1;fill-rule:nonzero;stroke:none"
         d="m 5095.07,12351.5 v 103.9 h -172.43 v -103.9 c 0,-21.3 16.53,-35.4 37.79,-35.4 h 96.85 c 21.26,0 37.79,14.1 37.79,35.4 v 0" /></g></g></g></svg>