<?xml version="1.0" encoding="UTF-8" standalone="no"?>
<svg
   xmlns="http://www.w3.org/2000/svg"
   viewBox="946 1344 320 320"
   height="128"
   width="128"
   xml:space="preserve"
   id="svg2"
   version="1.1"><g
     transform="matrix(1.3333333,0,0,-1.3333333,0,2666.6667)"
     id="g10"><g
       transform="scale(0.1)"
       id="g12"><g
         transform="scale(1.08831)"
         id="g26"><path
         id="path308"
         style="fill:#ffffff;fill-opacity:1;fill-rule:nonzero;stroke:none"
         d="m 7908.35,8380.8 c 264.56,-120.5 524.39,-250.4 767.69,-408.7 33.07,-23.6 40.15,-66.1 18.89,-99.2 l -139.36,-212.6 c -18.9,-30.7 -56.69,-40.1 -87.4,-26 l -392.11,141.8 c 0,-61.4 0,-122.9 -4.72,-186.6 -4.73,-101.6 -21.26,-203.2 -54.33,-292.9 -11.81,-28.4 -40.16,-47.3 -68.5,-44.9 h -642.5 c -30.71,0 -56.69,18.9 -66.14,44.9 -33.07,89.7 -49.6,191.3 -56.69,292.9 -2.36,63.7 -4.72,125.2 -2.36,186.6 L 6781.62,7632 c -30.71,-11.8 -63.78,2.3 -82.67,28.3 l -139.37,215 c -23.62,37.8 -9.44,77.9 25.99,99.2 122.83,80.3 250.38,153.5 382.66,222 127.55,66.2 252.74,127.6 377.94,184.3 -23.63,26 -30.71,56.7 -14.18,87.4 47.24,139.3 103.94,231.5 162.99,281.1 87.4,77.9 184.24,70.8 269.28,-7.1 61.41,-56.7 118.1,-153.6 162.99,-278.8 11.81,-28.3 4.72,-59 -18.9,-82.6 v 0" /><path
         id="path310"
         style="fill:#2a2523;fill-opacity:1;fill-rule:nonzero;stroke:none"
         d="m 7998.11,8184.7 c -18.9,-77.9 -4.73,-165.3 16.53,-240.9 l 453.53,-163 73.23,111 c -174.8,108.7 -356.68,205.5 -543.29,292.9 v 0" /><path
         id="path312"
         style="fill:#2a2523;fill-opacity:1;fill-rule:nonzero;stroke:none"
         d="m 7242.23,7943.8 c 18.9,68.5 30.71,146.4 21.26,212.6 -2.36,9.4 -2.36,18.9 -7.08,28.3 -75.59,-35.4 -151.18,-73.2 -224.4,-111 C 6923.35,8017 6817.05,7958 6713.12,7891.8 l 73.23,-111 455.88,163" /><path
         id="path314"
         style="fill:#2a2523;fill-opacity:1;fill-rule:nonzero;stroke:none"
         d="m 7657.96,8222.5 v -248 c 0,-16.5 -14.17,-28.4 -30.7,-28.4 -16.54,0 -28.35,11.9 -28.35,28.4 v 248 c -63.77,2.4 -125.19,14.2 -193.69,30.7 -30.71,-14.2 -61.42,-28.3 -92.12,-42.5 35.43,-115.7 11.81,-243.3 7.08,-361.4 -2.36,-80.3 -2.36,-165.4 2.36,-250.4 4.73,-73.2 14.18,-144.1 33.08,-210.2 h 545.64 c 18.9,66.1 28.35,137 33.07,210.2 4.73,89.8 2.36,179.5 0,262.2 -2.36,99.2 -14.17,205.5 0,304.7 2.36,14.2 7.09,30.7 9.45,44.9 -30.71,14.2 -61.42,28.3 -92.12,42.5 -68.5,-16.5 -132.28,-28.3 -193.7,-30.7 v 0" /><path
         id="path316"
         style="fill:#2a2523;fill-opacity:1;fill-rule:nonzero;stroke:none"
         d="M 7606,8583.9 V 8728 c -18.9,-4.7 -37.79,-14.2 -56.69,-33.1 -33.07,-28.3 -63.78,-73.2 -94.49,-139.3 40.16,14.1 94.49,26 151.18,28.3 v 0" /><path
         id="path318"
         style="fill:#2a2523;fill-opacity:1;fill-rule:nonzero;stroke:none"
         d="m 7471.36,8477.6 c -70.87,-28.3 -59.06,-68.5 11.81,-85 99.21,-26 191.33,-26 290.54,0 85.04,21.2 77.95,56.7 9.45,85 -85.04,33.1 -224.41,33.1 -311.8,0 v 0" /><path
         id="path320"
         style="fill:#2a2523;fill-opacity:1;fill-rule:nonzero;stroke:none"
         d="m 7657.96,8723.3 v -141.7 c 54.33,-2.4 103.94,-11.9 141.73,-26 -25.98,59 -59.05,103.9 -89.76,134.6 -18.89,16.5 -35.43,28.4 -51.97,33.1 v 0" /><path
         id="path322"
         style="fill:#ffffff;fill-opacity:1;fill-rule:nonzero;stroke:none"
         d="m 7884.73,7608.4 -40.16,-127.6 c -7.08,-16.5 -18.9,-23.6 -35.43,-23.6 H 7450.1 c -11.81,-2.4 -25.98,7.1 -30.71,18.9 l -42.51,127.5 c -2.37,14.2 -2.37,28.4 9.44,37.8 94.49,68.5 108.66,134.7 111.02,146.5 0,14.2 14.17,26 28.35,26 h 205.5 c 16.53,0 30.71,-7.1 33.07,-26 0,0 9.45,-73.2 108.66,-146.5 11.81,-7.1 16.53,-21.2 11.81,-33 v 0" /><path
         id="path324"
         style="fill:#2a2523;fill-opacity:1;fill-rule:nonzero;stroke:none"
         d="m 7792.61,7516.2 30.7,89.8 c -70.86,56.7 -99.21,115.7 -111.02,148.8 h -162.98 c -11.81,-33.1 -40.16,-92.1 -108.66,-148.8 l 28.35,-89.8 h 323.61" /></g></g></g></svg>