<?xml version="1.0" encoding="UTF-8" standalone="no"?>
<svg
   xmlns="http://www.w3.org/2000/svg"
   viewBox="1306 1014 286 286"
   height="128"
   width="128"
   xml:space="preserve"
   id="svg2"
   version="1.1"><g
     transform="matrix(1.3333333,0,0,-1.3333333,0,2666.6667)"
     id="g10"><g
       transform="scale(0.1)"
       id="g12"><g
         transform="scale(1.08831)"
         id="g26"><path
         id="path424"
         style="fill:#ffffff;fill-opacity:1;fill-rule:nonzero;stroke:none"
         d="m 9767.33,11352.3 c 16.54,37.8 70.86,11.8 54.33,-23.6 l -68.5,-153.5 c 82.67,-9.5 162.98,-42.6 229.13,-89.8 77.91,52 172.41,85 264.51,89.8 l -75.5,162.9 c -16.6,35.5 35.4,59.1 51.9,26 l 108.7,-226.7 c 101.5,-151.2 47.2,-217.4 -9.5,-288.2 -18.9,-23.6 -37.8,-47.3 -37.8,-80.3 l 9.5,-170.1 c 120.5,-248 103.9,-507.9 89.7,-701.6 -4.7,-99.2 -11.8,-179.5 4.8,-207.8 16.5,-30.7 7,-68.5 -21.3,-87.4 -9.4,-9.5 -33.1,-26 -68.5,-40.2 9.5,-33 -2.4,-68.5 -35.4,-85 -144.1,-75.6 -392.14,-73.2 -531.5,0 -28.35,16.5 -42.52,52 -30.71,85 -44.88,18.9 -73.23,42.5 -73.23,42.5 -28.34,23.7 -30.7,56.7 -16.53,87.4 14.18,30.8 9.45,108.7 2.36,205.5 -11.81,193.7 -28.34,453.6 89.76,701.6 l 9.45,170.1 c 2.36,33 -16.53,56.7 -33.07,82.6 -51.97,68.5 -87.4,125.2 -16.53,276.4 l 103.93,224.4" /><path
         id="path426"
         style="fill:#2a2523;fill-opacity:1;fill-rule:nonzero;stroke:none"
         d="m 9842.92,10591.7 c 99.21,-35.4 212.58,-42.5 314.18,-2.3 l -4.7,61.4 c -99.3,-35.5 -207.91,-28.4 -307.12,2.3 l -2.36,-61.4" /><path
         id="path428"
         style="fill:#2a2523;fill-opacity:1;fill-rule:nonzero;stroke:none"
         d="m 10119.3,10230.3 c 0,16.5 16.5,28.4 30.7,28.4 16.5,-2.4 30.7,-16.6 28.3,-33.1 -14.1,-181.9 -33,-370.9 4.8,-550.4 28.3,2.4 42.5,4.7 61.4,14.2 -9.5,56.7 -4.7,129.9 2.3,217.3 11.8,174.8 26,411 -73.2,626 -111,-42.6 -236.2,-35.5 -347.22,2.3 -101.57,-214.9 -85.03,-451.1 -73.22,-628.3 4.72,-87.4 9.45,-160.6 0,-217.3 21.26,-9.5 42.52,-11.8 63.77,-14.2 44.89,177.2 28.35,370.9 2.37,550.4 -2.37,16.5 9.45,30.7 25.98,33.1 16.54,2.3 30.71,-9.5 33.07,-26 33.07,-219.7 40.16,-437 -25.98,-652 92.12,-26 203.13,-26 295.23,0 -51.9,212.6 -47.2,432.3 -28.3,649.6 v 0" /><path
         id="path430"
         style="fill:#2a2523;fill-opacity:1;fill-rule:nonzero;stroke:none"
         d="m 10031.9,10948.4 c -28.4,-23.6 -56.7,-21.3 -80.33,-4.7 -54.32,37.8 -108.65,73.2 -181.88,87.4 -16.53,-47.3 2.37,-70.9 21.26,-96.9 37.8,-54.3 63.78,-101.6 61.42,-170.1 l -2.37,-49.6 c 94.49,-33 203.1,-40.1 300,-2.3 l -2.4,47.2 c -4.7,73.2 23.7,120.5 66.2,174.8 21.2,26 40.1,49.6 16.5,101.6 -75.6,-9.5 -139.4,-40.2 -198.4,-87.4 v 0" /></g></g></g></svg>