<?xml version="1.0" encoding="UTF-8" standalone="no"?>
<svg
   xmlns="http://www.w3.org/2000/svg"
   viewBox="1308 1700 286 286"
   height="128"
   width="128"
   xml:space="preserve"
   id="svg2"
   version="1.1"><g
     transform="matrix(1.3333333,0,0,-1.3333333,0,2666.6667)"
     id="g10"><g
       transform="scale(0.1)"
       id="g12"><g
         transform="scale(1.08831)"
         id="g26"><path
         id="path152"
         style="fill:#ffffff;fill-opacity:1;fill-rule:nonzero;stroke:none"
         d="m 10128.7,6389.5 c 92.2,139.4 245.7,177.2 380.3,68.5 75.6,-61.4 210.3,-191.3 262.2,-361.4 52,-174.8 -16.5,-361.4 -68.5,-529.1 -37.8,-122.8 -73.2,-238.6 -87.4,-418.1 -9.4,-127.5 -33,-257.5 -160.6,-323.6 -120.5,-63.8 -309.4,-40.2 -385,85 -54.3,94.5 -42.5,224.4 -7.1,333.1 77.9,248 47.2,453.5 18.9,628.3 -28.4,177.2 -59.1,356.7 47.2,517.3 v 0" /><path
         id="path154"
         style="fill:#2a2523;fill-opacity:1;fill-rule:nonzero;stroke:none"
         d="m 10249.2,5640.7 c 7.1,-134.6 -4.7,-285.8 -61.4,-455.9 -18.9,-59 -33.1,-141.7 0,-198.4 35.4,-63.8 141.7,-70.8 203.1,-37.8 82.7,42.5 80.3,137 87.4,217.3 16.6,189 52,309.5 92.1,437 21.3,170.1 -42.5,349.6 -170,465.4 -120.5,-94.5 -158.3,-281.1 -151.2,-427.6 v 0" /><path
         id="path156"
         style="fill:#2a2523;fill-opacity:1;fill-rule:nonzero;stroke:none"
         d="m 10244.5,6313.9 c -82.7,-125.2 -47.3,-290.5 -26,-425.2 28.3,92.2 75.6,177.2 153.5,233.9 -2.3,33.1 -9.4,63.8 -18.9,96.8 -9.4,40.2 47.3,56.7 59.1,14.2 9.4,-37.8 16.5,-75.6 18.9,-113.4 101.6,-87.4 165.3,-207.8 189,-337.8 23.6,92.2 47.2,181.9 18.9,274.1 -42.6,134.6 -153.6,240.9 -217.4,292.9 -70.8,59 -129.9,33 -177.1,-35.5 v 0" /><path
         id="path158"
         style="fill:#ffffff;fill-opacity:1;fill-rule:nonzero;stroke:none"
         d="m 9871.26,6389.5 c -92.12,139.4 -245.65,177.2 -380.3,68.5 -75.58,-61.4 -210.22,-191.3 -262.19,-361.4 -51.97,-174.8 16.53,-361.4 68.5,-529.1 37.79,-122.8 70.86,-238.6 87.4,-418.1 9.45,-127.5 33.07,-257.5 160.62,-323.6 120.47,-63.8 309.44,-40.2 385.03,85 54.32,94.5 42.51,224.4 7.08,333.1 -77.95,248 -47.24,453.5 -18.89,628.3 28.34,177.2 59.05,356.7 -47.25,517.3 v 0" /><path
         id="path160"
         style="fill:#2a2523;fill-opacity:1;fill-rule:nonzero;stroke:none"
         d="m 9750.8,5640.7 c -7.09,-134.6 2.36,-285.8 61.41,-455.9 18.9,-59 33.07,-141.7 0,-198.4 -35.43,-63.8 -141.73,-70.8 -203.14,-37.8 -82.67,42.5 -80.31,137 -87.4,217.3 -16.53,189 -51.97,309.5 -92.12,437 -21.26,170.1 42.52,349.6 170.07,465.4 120.47,-94.5 158.26,-281.1 151.18,-427.6 v 0" /><path
         id="path162"
         style="fill:#2a2523;fill-opacity:1;fill-rule:nonzero;stroke:none"
         d="m 9755.52,6313.9 c 82.67,-125.2 47.24,-290.5 25.98,-425.2 -28.34,92.2 -77.95,177.2 -153.54,233.9 2.37,33.1 9.45,63.8 16.54,96.8 11.81,40.2 -44.88,56.7 -56.69,14.2 -9.45,-37.8 -16.54,-75.6 -18.9,-113.4 -101.57,-87.4 -165.35,-207.8 -188.96,-337.8 -23.63,92.2 -47.25,181.9 -18.91,274.1 40.17,134.6 153.54,240.9 217.32,292.9 70.86,59 129.92,33 177.16,-35.5 v 0" /></g></g></g></svg>