<?xml version="1.0" encoding="UTF-8" standalone="no"?>
<svg
   xmlns="http://www.w3.org/2000/svg"
   viewBox="275 327 286 286"
   height="128"
   width="128"
   xml:space="preserve"
   id="svg2"
   version="1.1"><g
     transform="matrix(1.3333333,0,0,-1.3333333,0,2666.6667)"
     id="g10"><g
       transform="scale(0.1)"
       id="g12"><g
         transform="scale(1.08831)"
         id="g26"><path
         id="path700"
         style="fill:#ffffff;fill-opacity:1;fill-rule:nonzero;stroke:none"
         d="m 3781.74,14808.1 c -288.18,-139.4 -585.8,-89.8 -890.51,-108.7 -274.01,-18.9 -540.93,-96.8 -781.86,94.5 -63.78,49.6 -118.11,113.4 -158.27,184.3 -33.07,56.6 -4.72,118.1 61.42,118.1 141.72,0 281.09,16.5 422.82,37.8 7.08,224.3 120.47,370.8 262.19,439.3 125.19,61.4 278.73,63.8 403.92,2.4 122.83,-59.1 217.31,-177.2 226.76,-349.6 196.06,-33.1 370.86,-134.7 481.87,-302.4 30.71,-44.9 23.63,-92.1 -28.34,-115.7 v 0" /><path
         id="path702"
         style="fill:#2a2523;fill-opacity:1;fill-rule:nonzero;stroke:none"
         d="m 3177.04,15292.3 c -203.14,2.4 -394.47,-47.2 -592.89,-70.9 -18.9,-49.6 -18.9,-101.5 -25.99,-153.5 200.79,35.4 448.81,80.3 654.31,82.7 -4.72,49.6 -14.17,96.8 -35.43,141.7 v 0" /><path
         id="path704"
         style="fill:#2a2523;fill-opacity:1;fill-rule:nonzero;stroke:none"
         d="m 2605.41,15285.2 c 181.88,23.7 359.04,66.2 545.64,66.2 -28.34,44.8 -66.13,77.9 -111.02,99.2 -87.39,44.8 -193.69,40.1 -281.08,-2.4 -63.78,-30.7 -120.47,-85 -153.54,-163 v 0" /><path
         id="path706"
         style="fill:#2a2523;fill-opacity:1;fill-rule:nonzero;stroke:none"
         d="m 2938.47,14890.8 c 212.58,66.1 422.81,129.9 640.13,82.6 -120.47,94.5 -276.37,132.3 -427.55,122.9 -342.5,-18.9 -642.49,-118.1 -1018.07,-134.7 222.04,-250.4 533.84,-155.9 805.49,-70.8 v 0" /><path
         id="path708"
         style="fill:#2a2523;fill-opacity:1;fill-rule:nonzero;stroke:none"
         d="m 3637.65,14895.5 c -219.68,75.6 -436.99,14.2 -656.67,-54.3 219.68,4.7 444.08,-18.9 656.67,54.3 v 0" /></g></g></g></svg>