<?xml version="1.0" encoding="UTF-8" standalone="no"?>
<svg
   xmlns="http://www.w3.org/2000/svg"
   viewBox="620 1690 286 316"
   height="128"
   width="128"
   xml:space="preserve"
   id="svg2"
   version="1.1"><g
     transform="matrix(1.3333333,0,0,-1.3333333,0,2666.6667)"
     id="g10"><g
       transform="scale(0.1)"
       id="g12"><g
         transform="scale(1.08831)"
         id="g26"><path
         id="path204"
         style="fill:#ffffff;fill-opacity:1;fill-rule:nonzero;stroke:none"
         d="m 5380.89,6415.5 c 59.05,-59.1 68.5,-148.8 30.71,-219.7 292.9,-122.8 406.28,-498.4 439.35,-781.8 47.24,-11.9 92.12,-35.5 127.56,-70.9 101.56,-103.9 101.56,-321.2 0,-422.8 -51.97,-52 -122.84,-78 -191.34,-78 H 4724.22 c -70.86,0 -139.36,26 -191.33,78 -101.57,101.6 -101.57,318.9 0,422.8 33.07,33.1 75.59,56.7 122.83,68.5 30.71,283.5 139.37,659 429.91,784.2 -37.8,70.9 -25.99,160.6 33.07,219.7 70.86,70.9 188.97,70.9 262.19,0 v 0" /><path
         id="path206"
         style="fill:#2a2523;fill-opacity:1;fill-rule:nonzero;stroke:none"
         d="m 5213.18,6321 c -21.26,-21.2 -21.26,-54.3 0,-73.2 18.9,-21.3 51.97,-21.3 73.23,0 18.89,18.9 18.89,52 0,73.2 -21.26,18.9 -54.33,18.9 -73.23,0 v 0" /><path
         id="path208"
         style="fill:#2a2523;fill-opacity:1;fill-rule:nonzero;stroke:none"
         d="M 5744.65,5286.4 V 4977 h 42.52 c 35.44,0 68.5,9.4 96.85,35.4 51.97,54.3 51.97,184.2 0,236.2 -25.98,26 -59.05,37.8 -94.48,37.8 h -44.89" /><path
         id="path210"
         style="fill:#2a2523;fill-opacity:1;fill-rule:nonzero;stroke:none"
         d="M 5513.17,5286.4 V 4977 h 174.79 v 309.4 h -174.79" /><path
         id="path212"
         style="fill:#2a2523;fill-opacity:1;fill-rule:nonzero;stroke:none"
         d="M 5284.04,5286.4 V 4977 h 172.44 v 309.4 h -172.44" /><path
         id="path214"
         style="fill:#2a2523;fill-opacity:1;fill-rule:nonzero;stroke:none"
         d="M 5052.55,5286.4 V 4977 h 174.8 v 309.4 h -174.8" /><path
         id="path216"
         style="fill:#2a2523;fill-opacity:1;fill-rule:nonzero;stroke:none"
         d="m 4766.74,4977 v 309.4 h -47.24 c -35.43,0 -66.14,-11.8 -92.13,-37.8 -51.96,-52 -51.96,-181.9 0,-236.2 25.99,-23.6 56.7,-35.4 92.13,-35.4 h 47.24" /><path
         id="path218"
         style="fill:#2a2523;fill-opacity:1;fill-rule:nonzero;stroke:none"
         d="M 4823.43,5286.4 V 4977 h 172.43 v 309.4 h -172.43" /><path
         id="path220"
         style="fill:#2a2523;fill-opacity:1;fill-rule:nonzero;stroke:none"
         d="m 4790.36,5418.7 h 925.95 c -40.16,314.1 -151.17,517.3 -285.82,614.1 -113.38,85.1 -248.02,85.1 -361.4,0 -132.28,-96.8 -240.94,-300 -278.73,-614.1 v 0" /><path
         id="path222"
         style="fill:#ffffff;fill-opacity:1;fill-rule:nonzero;stroke:none"
         d="m 4958.07,5513.2 c -2.36,-37.8 -59.05,-33.1 -56.69,4.7 11.81,165.3 61.42,290.5 125.19,373.2 73.23,94.5 188.97,153.5 307.08,108.7 51.97,-21.3 101.57,-61.5 144.08,-122.9 18.9,-30.7 -28.34,-63.7 -47.24,-33 -35.43,51.9 -75.58,85 -118.1,101.5 -94.48,37.8 -184.25,-14.1 -240.94,-89.7 -59.05,-73.3 -101.57,-189 -113.38,-342.5 v 0" /></g></g></g></svg>