<?xml version="1.0" encoding="UTF-8" standalone="no"?>
<svg
   xmlns="http://www.w3.org/2000/svg"
   viewBox="1652 1700 286 286"
   height="128"
   width="128"
   xml:space="preserve"
   id="svg2"
   version="1.1"><g
     transform="matrix(1.3333333,0,0,-1.3333333,0,2666.6667)"
     id="g10"><g
       transform="scale(0.1)"
       id="g12"><g
         transform="scale(1.08831)"
         id="g26"><path
         id="path138"
         style="fill:#ffffff;fill-opacity:1;fill-rule:nonzero;stroke:none"
         d="m 12627.8,6427.3 c 61.5,0 122.9,-9.4 181.9,-30.7 33.1,-11.8 66.2,-26 104,-44.9 l 325.9,-167.7 c 75.6,-37.8 99.2,-125.2 59.1,-198.4 l -151.2,-255.1 c -37.8,-66.2 -120.5,-92.1 -189,-56.7 l -23.6,11.8 v -588.2 c 0,-125.2 -103.9,-217.3 -224.4,-217.3 h -682.6 c -122.9,0 -219.7,96.9 -219.7,222.1 v 583.4 l -21.3,-9.4 c -68.5,-35.5 -151.1,-16.6 -188.9,51.9 l -151.2,257.5 c -42.5,70.9 -16.5,160.6 54.3,196 l 432.3,207.9 c 63.8,30.7 115.7,42.5 186.6,42.5 35.4,0 56.7,-23.6 68.5,-54.3 63.8,-165.3 304.7,-160.6 366.1,-2.4 11.8,33.1 35.5,56.7 73.2,52 v 0" /><path
         id="path140"
         style="fill:#ffffff;fill-opacity:1;fill-rule:nonzero;stroke:none"
         d="m 13180.6,6058.8 v 0 0 0 0 0" /><path
         id="path142"
         style="fill:#2a2523;fill-opacity:1;fill-rule:nonzero;stroke:none"
         d="m 13109.7,6094.2 -148.8,-266.9 66.1,-30.7 153.6,262.2 v 0 0 l -70.9,35.4" /><path
         id="path144"
         style="fill:#2a2523;fill-opacity:1;fill-rule:nonzero;stroke:none"
         d="m 11784.6,5829.7 -148.8,266.9 -70.9,-37.8 153.5,-264.5 66.2,35.4" /><path
         id="path146"
         style="fill:#2a2523;fill-opacity:1;fill-rule:nonzero;stroke:none"
         d="m 12001.9,6273.8 c 146.4,-318.9 597.6,-304.7 741.7,0 l -78,14.1 c -129.9,-231.4 -477.1,-226.7 -592.8,11.9 l -70.9,-26" /><path
         id="path148"
         style="fill:#2a2523;fill-opacity:1;fill-rule:nonzero;stroke:none"
         d="m 12800.3,6252.5 c -165.4,-356.7 -692.1,-361.4 -855.1,0 -16.5,-7.1 -33.1,-16.5 -52,-23.6 l -205.5,-106.3 148.8,-266.9 c 47.3,23.6 111.1,9.4 111.1,-56.7 v -699.2 c 0,-47.2 35.4,-80.3 80.3,-80.3 h 687.3 c 42.6,0 80.4,28.3 80.4,77.9 v 696.9 c 0,51.9 51.9,92.1 101.5,66.1 l 11.8,-4.7 148.9,266.9 c -85.1,42.5 -170.1,92.1 -257.5,129.9 v 0" /></g></g></g></svg>