<?xml version="1.0" encoding="UTF-8" standalone="no"?>
<svg
   xmlns="http://www.w3.org/2000/svg"
   viewBox="2339 321 286 286"
   height="128"
   width="128"
   xml:space="preserve"
   id="svg2"
   version="1.1"><g
     transform="matrix(1.3333333,0,0,-1.3333333,0,2666.6667)"
     id="g10"><g
       transform="scale(0.1)"
       id="g12"><g
         transform="scale(1.08831)"
         id="g26"><g
         transform="scale(1.10454)"
         id="g1474"><path
           id="path1476"
           style="fill:#ffffff;fill-opacity:1;fill-rule:nonzero;stroke:none"
           d="m 14691.8,13832.1 v 370 c 0,38.5 32.1,57.7 66.3,57.7 h 1484.1 c 34.3,0 57.8,-27.8 57.8,-59.8 v -370 c 0,-40.6 -32,-57.7 -66.3,-57.7 -192.5,-4.3 -370,-136.9 -446.9,-310.1 -25.7,-57.8 -40.7,-121.9 -38.5,-186.1 0,-23.5 -12.9,-42.8 -32.1,-53.5 -139,-81.2 -301.5,-81.2 -442.7,2.2 -23.5,15 -27.8,38.5 -27.8,62 -4.2,252.4 -235.2,479 -487.6,485.5 -34.2,0 -66.3,17.1 -66.3,59.8 v 0" /></g><g
         transform="scale(1.09657)"
         id="g1478"><path
           id="path1480"
           style="fill:#2a2523;fill-opacity:1;fill-rule:nonzero;stroke:none"
           d="M 14917.1,14176.1 H 16300 v 71.1 h -1382.9 v -71.1" /></g><g
         transform="scale(1.09657)"
         id="g1482"><path
           id="path1484"
           style="fill:#2a2523;fill-opacity:1;fill-rule:nonzero;stroke:none"
           d="m 15819.6,14124.4 c 68.9,-90.5 105.6,-204.7 112.1,-318.8 99,99 230.4,165.8 368.3,180.9 v 137.9 h -480.4" /></g><g
         transform="scale(1.03585)"
         id="g1486"><path
           id="path1488"
           style="fill:#2a2523;fill-opacity:1;fill-rule:nonzero;stroke:none"
           d="m 16181.4,14617.1 c 6.8,118.6 45.6,239.4 118.6,335.2 h -508.6 v -146 c 146,-15.9 285.1,-86.6 390,-189.2 v 0" /></g><g
         transform="scale(1.06875)"
         id="g1490"><path
           id="path1492"
           style="fill:#2a2523;fill-opacity:1;fill-rule:nonzero;stroke:none"
           d="m 15864.5,14492.1 c -90.5,-103.9 -132.5,-243.2 -130.3,-382.4 81.8,-99.5 134.8,-223.2 141.4,-353.6 90.6,-44.2 190.1,-44.2 278.5,0 4.4,72.9 22.1,141.4 50.8,205.5 22.1,53.1 53.1,103.9 90.6,148.1 4.5,137 -39.8,278.5 -130.3,382.4 h -300.7" /></g></g></g></g></svg>