<svg xmlns="http://www.w3.org/2000/svg" version="1.1" xmlns:xlink="http://www.w3.org/1999/xlink" xmlns:svgjs="http://svgjs.dev/svgjs" width="1000" height="1125" viewBox="0 0 1000 1125"><g transform="matrix(1,0,0,1,0.0005762637636053114,0)"><svg viewBox="0 0 320 360" data-background-color="#ffffff" preserveAspectRatio="xMidYMid meet" height="1125" width="1000" xmlns="http://www.w3.org/2000/svg" xmlns:xlink="http://www.w3.org/1999/xlink"><g id="tight-bounds" transform="matrix(1,0,0,1,0.00018440440442191175,0)"><svg viewBox="0 0 320 360" height="360" width="320"><g><svg></svg></g><g><svg viewBox="0 0 320 360" height="360" width="320"><g><path xmlns="http://www.w3.org/2000/svg" d="M294.684 112.125c-8.775-10.699-25.381-16.201-43-22.006-7.56-2.498-15.357-5.097-22.985-8.235-7.695-3.173-15.256-7.257-22.613-11.172-14.952-8.033-30.41-16.336-46.105-16.336-15.661 0-31.119 8.303-46.071 16.336-7.358 3.949-14.952 8.033-22.648 11.205-7.594 3.139-15.425 5.704-22.985 8.236-17.618 5.839-34.224 11.341-42.999 22.006-11.712 14.277-11.442 35.439-11.172 57.817 0.034 3.375 0.068 6.717 0.067 10.024 0 3.308-0.034 6.649-0.101 10.024-0.27 22.411-0.54 43.54 11.172 57.851 8.775 10.666 25.381 16.167 42.966 22.006 7.56 2.498 15.357 5.097 23.019 8.235 7.695 3.173 15.256 7.223 22.579 11.172 14.986 8.067 30.444 16.37 46.105 16.37 15.695 0 31.153-8.303 46.105-16.336 7.358-3.949 14.918-8.033 22.614-11.172 7.594-3.139 15.357-5.704 22.884-8.202 17.72-5.873 34.326-11.374 43.101-22.039 11.712-14.277 11.442-35.439 11.171-57.817-0.034-3.409-0.101-6.75-0.101-10.058 0-3.308 0.034-6.649 0.101-9.991 0.371-22.479 0.641-43.641-11.104-57.918zM305.552 103.215c-15.728-19.171-45.801-23.727-71.486-34.326-22.985-9.45-46.375-28.588-74.051-28.587-27.676 0-51.066 19.137-74.052 28.587-25.719 10.598-55.758 15.155-71.486 34.326-17.078 20.791-14.311 50.121-14.311 76.785 0 26.63-2.768 55.994 14.277 76.785 15.728 19.171 45.801 23.727 71.487 34.326 22.985 9.484 46.375 28.588 74.051 28.587 27.676 0 51.066-19.103 74.051-28.587 25.719-10.598 55.758-15.155 71.486-34.326 17.045-20.791 14.277-50.121 14.277-76.785 0.068-26.664 2.835-55.994-14.243-76.785zM309.872 189.923c0.304 23.221 0.574 45.059-12.083 60.483-9.518 11.577-26.664 17.281-44.822 23.289-7.56 2.498-15.29 5.063-22.715 8.134-7.493 3.071-14.952 7.088-22.175 10.969-15.458 8.303-31.355 16.842-48.062 16.842-16.707 0-32.604-8.539-47.995-16.808-7.257-3.915-14.75-7.932-22.243-11.003-7.527-3.105-15.256-5.67-22.748-8.134-18.192-6.008-35.338-11.712-44.823-23.289-12.623-15.391-12.353-37.262-12.083-60.415 0.034-3.375 0.101-6.683 0.101-9.991 0-3.308-0.034-6.615-0.067-9.991-0.304-23.154-0.574-45.025 12.083-60.415 9.518-11.577 26.664-17.247 44.822-23.289 7.527-2.498 15.256-5.063 22.749-8.134 7.493-3.105 14.986-7.122 22.242-11.003 15.391-8.269 31.322-16.842 47.995-16.842 16.673 0 32.604 8.539 47.995 16.808 7.257 3.915 14.75 7.932 22.243 11.003 7.493 3.105 15.256 5.637 22.715 8.134 18.158 6.008 35.338 11.712 44.822 23.289 12.657 15.425 12.387 37.262 12.083 60.416-0.034 3.409-0.101 6.717-0.101 9.99 0 3.308 0.034 6.615 0.067 9.957z" fill="#d23130" fill-rule="nonzero" stroke="none" stroke-width="1" stroke-linecap="butt" stroke-linejoin="miter" stroke-miterlimit="10" stroke-dasharray="" stroke-dashoffset="0" font-family="none" font-weight="none" font-size="none" text-anchor="none" style="mix-blend-mode: normal" data-fill-palette-color="tertiary"></path></g><g transform="matrix(1,0,0,1,64,112.86984615384615)"><svg viewBox="0 0 192 134.2603076923077" height="134.2603076923077" width="192"><g><svg viewBox="0 0 192 134.2603076923077" height="134.2603076923077" width="192"><g><svg viewBox="0 0 192 134.2603076923077" height="134.2603076923077" width="192"><g transform="matrix(1,0,0,1,0,82.97825641025642)"><svg viewBox="0 0 192 51.28205128205128" height="51.28205128205128" width="192"><g><svg viewBox="0 0 192 51.28205128205128" height="51.28205128205128" width="192"><g><svg viewBox="0 0 192 51.28205128205128" height="51.28205128205128" width="192"><g transform="matrix(1,0,0,1,0,0)"><svg width="192" viewBox="3.299999952316284 -36 187.17999267578125 50" height="51.28205128205128" data-palette-color="#ffffff"><path d="M7.6 4.35L7.6 4.35Q5.3 4.15 4.75 3.1 4.2 2.05 4.2 0.4L4.2 0.4Q4.2-1.4 4.95-4.03 5.7-6.65 6.83-9.75 7.95-12.85 9.1-15.95L9.1-15.95Q8.5-15.9 7.83-15.83 7.15-15.75 6.15-15.63 5.15-15.5 3.55-15.25L3.55-15.25Q3.65-16.55 4.53-17.28 5.4-18 6.85-18.35 8.3-18.7 10.1-18.75L10.1-18.75Q11.5-22.6 12.98-26.28 14.45-29.95 15.9-33L15.9-33Q15.4-33.05 14.93-33.08 14.45-33.1 13.95-33.1L13.95-33.1Q10.75-33.1 9-32.45 7.25-31.8 6.6-30.45 5.95-29.1 5.95-27L5.95-27Q5.95-25.9 6.1-24.98 6.25-24.05 6.6-23.05L6.6-23.05Q4.9-23.35 4.1-24.38 3.3-25.4 3.3-26.95L3.3-26.95Q3.3-29.55 5.15-31.53 7-33.5 10.13-34.63 13.25-35.75 17.05-35.75L17.05-35.75Q19.7-35.75 22.18-35.38 24.65-35 27-35L27-35Q28.05-35 28.93-35.13 29.8-35.25 30.7-35.5L30.7-35.5Q28.85-33.4 27.6-32.7 26.35-32 25.05-32L25.05-32Q23.9-32 22.08-32.33 20.25-32.65 17.95-32.85L17.95-32.85Q17.3-31.2 16.5-28.88 15.7-26.55 14.85-23.93 14-21.3 13.15-18.7L13.15-18.7Q15.65-18.55 17.88-18.25 20.1-17.95 21.9-17.9L21.9-17.9Q21.5-17.3 20.98-16.98 20.45-16.65 19.5-16.5 18.55-16.35 16.88-16.28 15.2-16.2 12.4-16.15L12.4-16.15Q12.1-15.1 11.65-13.65 11.2-12.2 10.85-10.9 10.5-9.6 10.3-9L10.3-9Q9.2-5.15 8.43-1.8 7.65 1.55 7.6 4.35ZM31.85 1.3L31.85 1.3Q30.15 1.3 29.17 0.4 28.2-0.5 28.2-1.95L28.2-1.95Q28.2-3.45 28.9-5.1 29.6-6.75 30.27-8.38 30.95-10 30.95-11.3L30.95-11.3Q30.95-12.9 30.02-13.68 29.1-14.45 28.15-15.1L28.15-15.1Q27-12.15 25.75-9.5 24.5-6.85 23.7-5.5L23.7-5.5 23.25-6.35Q23.95-7.65 25.07-10.15 26.2-12.65 27.3-15.85L27.3-15.85Q26.8-16.35 26.8-17.05L26.8-17.05Q26.8-18.55 27.65-19.5 28.5-20.45 28.9-20.45L28.9-20.45Q29.45-20.45 29.52-19.98 29.6-19.5 29.6-19.25L29.6-19.25Q29.6-19 29.32-18.28 29.05-17.55 29.05-17.4L29.05-17.4Q29.05-16.7 29.82-16.13 30.6-15.55 31.6-14.83 32.6-14.1 33.37-13.08 34.15-12.05 34.15-10.45L34.15-10.45Q34.15-8.95 33.52-7.4 32.9-5.85 32.27-4.45 31.65-3.05 31.65-2L31.65-2Q31.65-1.1 32.1-0.8 32.55-0.5 33.15-0.5L33.15-0.5Q34.35-0.5 35.62-1.25 36.9-2 38.1-3.15 39.3-4.3 40.25-5.58 41.2-6.85 41.65-7.95L41.65-7.95 42.3-7.45Q41.35-5.35 39.7-3.33 38.05-1.3 36.02 0 34 1.3 31.85 1.3ZM43 2.35L43 2.35Q41.45 2.35 40.37 1.33 39.3 0.3 39.3-1.8L39.3-1.8Q39.3-3.6 40.1-5.68 40.9-7.75 42.3-9.78 43.7-11.8 45.47-13.48 47.25-15.15 49.22-16.15 51.2-17.15 53.15-17.15L53.15-17.15Q55.1-17.15 56.4-16.13 57.7-15.1 57.7-13.4L57.7-13.4Q57.7-12.15 57.02-11.7 56.35-11.25 55.25-11.25L55.25-11.25Q55.35-11.65 55.42-12.13 55.5-12.6 55.5-13L55.5-13Q55.5-14.15 54.95-14.98 54.4-15.8 53.05-15.8L53.05-15.8Q51.65-15.8 50.2-14.83 48.75-13.85 47.4-12.23 46.05-10.6 45-8.7 43.95-6.8 43.35-4.95 42.75-3.1 42.75-1.65L42.75-1.65Q42.75 0.3 44.1 0.3L44.1 0.3Q45.25 0.3 46.6-0.78 47.95-1.85 49.37-3.53 50.8-5.2 52.1-7 53.4-8.8 54.4-10.3L54.4-10.3Q54.6-10.6 54.65-10.6L54.65-10.6Q54.95-10.55 55.42-10.4 55.9-10.25 56.25-10 56.6-9.75 56.6-9.35L56.6-9.35Q56.6-8.9 56.15-8.13 55.7-7.35 55.15-6.35 54.6-5.35 54.15-4.33 53.7-3.3 53.7-2.4L53.7-2.4Q53.7-1.65 54.1-0.93 54.5-0.2 55.4-0.2L55.4-0.2Q56.75-0.2 58.95-2.18 61.15-4.15 63.4-8.1L63.4-8.1 63.9-7.6Q62.85-4.9 61.2-2.85 59.55-0.8 57.67 0.35 55.8 1.5 54 1.5L54 1.5Q52.15 1.5 51.27 0.4 50.4-0.7 50.4-2L50.4-2Q50.4-2.3 50.45-2.68 50.5-3.05 50.55-3.45L50.55-3.45Q48.4-0.55 46.62 0.9 44.85 2.35 43 2.35ZM64.29 14L64.29 14Q63.19 14 62.29 13.33 61.39 12.65 61.39 11.1L61.39 11.1Q61.39 9.6 62.32 8.33 63.24 7.05 64.69 5.98 66.14 4.9 67.87 4 69.59 3.1 71.14 2.3L71.14 2.3Q71.84 0.55 72.47-1.48 73.09-3.5 73.69-5.95L73.69-5.95Q71.79-3.2 69.72-1.38 67.64 0.45 65.54 0.45L65.54 0.45Q63.74 0.45 62.77-0.9 61.79-2.25 61.79-4.4L61.79-4.4Q61.79-7 63.07-9.35 64.34-11.7 66.39-13.5 68.44-15.3 70.74-16.32 73.04-17.35 75.04-17.35L75.04-17.35Q76.49-17.35 77.12-16.88 77.74-16.4 77.74-15.75L77.74-15.75Q77.74-15.3 77.49-15.05 77.24-14.8 77.14-14.75L77.14-14.75Q76.89-15.15 76.39-15.33 75.89-15.5 75.14-15.5L75.14-15.5Q73.19-15.5 71.37-14.35 69.54-13.2 68.14-11.4 66.74-9.6 65.92-7.68 65.09-5.75 65.09-4.15L65.09-4.15Q65.09-2.95 65.57-2.33 66.04-1.7 66.84-1.7L66.84-1.7Q68.29-1.7 70.32-3.63 72.34-5.55 74.24-8.3L74.24-8.3Q74.39-9 74.52-9.55 74.64-10.1 74.84-10.95L74.84-10.95Q74.99-11.65 75.57-12.58 76.14-13.5 77.39-13.5L77.39-13.5Q77.64-13.5 77.89-13.48 78.14-13.45 78.44-13.35L78.44-13.35Q78.44-12.55 77.97-10.43 77.49-8.3 76.62-5.48 75.74-2.65 74.59 0.35L74.59 0.35Q76.24-0.45 77.82-1.7 79.39-2.95 80.69-4.58 81.99-6.2 82.74-8.1L82.74-8.1 83.39-7.6Q82.64-5.35 80.99-3.5 79.34-1.65 77.47-0.3 75.59 1.05 74.04 1.8L74.04 1.8Q72.64 5.15 71.09 7.93 69.54 10.7 67.87 12.35 66.19 14 64.29 14ZM64.14 12.4L64.14 12.4Q65.14 12.4 66.87 10.43 68.59 8.45 70.59 3.65L70.59 3.65Q68.59 4.65 66.87 5.73 65.14 6.8 64.04 8 62.94 9.2 62.94 10.65L62.94 10.65Q62.94 11.45 63.29 11.93 63.64 12.4 64.14 12.4ZM84.24 2.35L84.24 2.35Q82.69 2.35 81.62 1.33 80.54 0.3 80.54-1.8L80.54-1.8Q80.54-3.6 81.34-5.68 82.14-7.75 83.54-9.78 84.94-11.8 86.72-13.48 88.49-15.15 90.47-16.15 92.44-17.15 94.39-17.15L94.39-17.15Q96.34-17.15 97.64-16.13 98.94-15.1 98.94-13.4L98.94-13.4Q98.94-12.15 98.27-11.7 97.59-11.25 96.49-11.25L96.49-11.25Q96.59-11.65 96.67-12.13 96.74-12.6 96.74-13L96.74-13Q96.74-14.15 96.19-14.98 95.64-15.8 94.29-15.8L94.29-15.8Q92.89-15.8 91.44-14.83 89.99-13.85 88.64-12.23 87.29-10.6 86.24-8.7 85.19-6.8 84.59-4.95 83.99-3.1 83.99-1.65L83.99-1.65Q83.99 0.3 85.34 0.3L85.34 0.3Q86.49 0.3 87.84-0.78 89.19-1.85 90.62-3.53 92.04-5.2 93.34-7 94.64-8.8 95.64-10.3L95.64-10.3Q95.84-10.6 95.89-10.6L95.89-10.6Q96.19-10.55 96.67-10.4 97.14-10.25 97.49-10 97.84-9.75 97.84-9.35L97.84-9.35Q97.84-8.9 97.39-8.13 96.94-7.35 96.39-6.35 95.84-5.35 95.39-4.33 94.94-3.3 94.94-2.4L94.94-2.4Q94.94-1.65 95.34-0.93 95.74-0.2 96.64-0.2L96.64-0.2Q97.99-0.2 100.19-2.18 102.39-4.15 104.64-8.1L104.64-8.1 105.14-7.6Q104.09-4.9 102.44-2.85 100.79-0.8 98.92 0.35 97.04 1.5 95.24 1.5L95.24 1.5Q93.39 1.5 92.52 0.4 91.64-0.7 91.64-2L91.64-2Q91.64-2.3 91.69-2.68 91.74-3.05 91.79-3.45L91.79-3.45Q89.64-0.55 87.87 0.9 86.09 2.35 84.24 2.35ZM113.79 4.35L113.79 4.35Q111.09 4.35 108.69 3.38 106.29 2.4 104.81 0.4 103.34-1.6 103.34-4.6L103.34-4.6Q103.34-7.2 104.36-8.65 105.39-10.1 106.89-10.7 108.39-11.3 109.74-11.3L109.74-11.3Q108.39-9.85 107.69-8.1 106.99-6.35 106.99-4.6L106.99-4.6Q106.99-2.75 107.81-1.15 108.64 0.45 110.34 1.43 112.04 2.4 114.64 2.4L114.64 2.4Q116.89 2.4 119.04 1.58 121.19 0.75 122.56-0.88 123.94-2.5 123.94-4.9L123.94-4.9Q123.94-7.05 122.84-8.6 121.74-10.15 120.01-11.35 118.29-12.55 116.34-13.65 114.39-14.75 112.66-15.98 110.94-17.2 109.84-18.8 108.74-20.4 108.74-22.65L108.74-22.65Q108.74-24.75 109.74-27.05 110.74-29.35 112.61-31.4 114.49-33.45 117.11-34.73 119.74-36 122.99-36L122.99-36Q125.94-36 127.09-34.58 128.24-33.15 128.24-31L128.24-31Q128.24-29.2 127.61-27.13 126.99-25.05 126.09-23.18 125.19-21.3 124.39-20L124.39-20Q123.49-20.2 123.11-20.78 122.74-21.35 122.74-22.15L122.74-22.15Q122.74-23.2 123.19-24.55 123.64-25.9 124.21-27.35 124.79-28.8 125.24-30.18 125.69-31.55 125.69-32.65L125.69-32.65Q125.69-33.65 125.09-34.23 124.49-34.8 122.89-34.8L122.89-34.8Q120.54-34.8 118.54-33.7 116.54-32.6 115.04-30.88 113.54-29.15 112.71-27.25 111.89-25.35 111.89-23.8L111.89-23.8Q111.89-21.95 112.96-20.63 114.04-19.3 115.74-18.23 117.44-17.15 119.36-16.07 121.29-15 122.99-13.7 124.69-12.4 125.76-10.63 126.84-8.85 126.84-6.3L126.84-6.3Q126.84-3.7 125.69-1.73 124.54 0.25 122.61 1.6 120.69 2.95 118.39 3.65 116.09 4.35 113.79 4.35ZM132.79 1.9L132.79 1.9Q131.84 1.9 131.29 0.3 130.74-1.3 130.74-3.3L130.74-3.3Q130.74-5.7 131.54-9 132.34-12.3 133.64-15.95 134.94-19.6 136.56-23.1 138.19-26.6 139.89-29.45 141.59-32.3 143.09-34 144.59-35.7 145.69-35.7L145.69-35.7Q146.59-35.7 146.96-34.63 147.34-33.55 147.34-32.55L147.34-32.55Q147.34-31.15 146.71-29.15 146.09-27.15 144.99-24.88 143.89-22.6 142.44-20.4 140.99-18.2 139.29-16.38 137.59-14.55 135.84-13.5L135.84-13.5Q135.24-12.05 134.81-10.25 134.39-8.45 134.19-6.73 133.99-5 133.99-3.65L133.99-3.65Q133.99-3.1 134.01-2.7 134.04-2.3 134.09-1.95L134.09-1.95Q134.79-4 135.61-5.93 136.44-7.85 137.39-9.47 138.34-11.1 139.41-12.33 140.49-13.55 141.69-14.23 142.89-14.9 144.24-14.9L144.24-14.9Q145.64-14.9 146.46-14.23 147.29-13.55 147.66-12.53 148.04-11.5 148.04-10.4L148.04-10.4Q148.04-8.85 147.51-7.4 146.99-5.95 146.44-4.6 145.89-3.25 145.89-2L145.89-2Q145.89-1 146.31-0.55 146.74-0.1 147.39-0.1L147.39-0.1Q148.54-0.1 149.96-1.2 151.39-2.3 152.79-4.13 154.19-5.95 155.19-8.1L155.19-8.1 155.84-7.5Q154.79-5.05 153.29-3.08 151.79-1.1 149.99 0.05 148.19 1.2 146.24 1.2L146.24 1.2Q144.54 1.2 143.66 0.3 142.79-0.6 142.79-1.95L142.79-1.95Q142.79-3 143.19-4.3 143.59-5.6 143.96-6.95 144.34-8.3 144.34-9.5L144.34-9.5Q144.34-10.8 143.79-11.35 143.24-11.9 142.44-11.9L142.44-11.9Q141.19-11.9 140.19-10.9 139.19-9.9 138.36-8.33 137.54-6.75 136.81-5 136.09-3.25 135.44-1.68 134.79-0.1 134.14 0.9 133.49 1.9 132.79 1.9ZM136.49-15.45L136.49-15.45Q137.89-16.55 139.21-18.25 140.54-19.95 141.69-21.88 142.84-23.8 143.74-25.65 144.64-27.5 145.14-29 145.64-30.5 145.64-31.25L145.64-31.25Q145.64-31.5 145.59-31.58 145.54-31.65 145.44-31.65L145.44-31.65Q145.09-31.65 144.01-30.28 142.94-28.9 141.54-26.6 140.14-24.3 138.79-21.4 137.44-18.5 136.49-15.45ZM157.68 1.6L157.68 1.6Q155.53 1.6 154.63 0.28 153.73-1.05 153.73-2.95L153.73-2.95Q153.73-4.5 154.23-6.15 154.73-7.8 155.56-9.25 156.38-10.7 157.41-11.6 158.43-12.5 159.48-12.5L159.48-12.5Q159.73-12.5 160.01-12.43 160.28-12.35 160.53-12.25L160.53-12.25Q160.08-11.85 159.46-10.78 158.83-9.7 158.28-8.33 157.73-6.95 157.36-5.6 156.98-4.25 156.98-3.3L156.98-3.3Q156.98-1.8 157.48-1.13 157.98-0.45 158.78-0.45L158.78-0.45Q159.83-0.45 161.28-1.58 162.73-2.7 164.13-4.45L164.13-4.45Q162.73-5.6 161.96-7.48 161.18-9.35 161.18-11.3L161.18-11.3Q161.18-12.95 161.76-14.4 162.33-15.85 163.43-16.73 164.53-17.6 166.08-17.6L166.08-17.6Q168.13-17.6 168.83-16.5 169.53-15.4 169.53-13.75L169.53-13.75Q169.53-11.8 168.58-9.43 167.63-7.05 166.18-4.85L166.18-4.85Q167.08-4.35 168.08-4.35L168.08-4.35Q168.88-4.35 169.88-4.67 170.88-5 171.86-5.8 172.83-6.6 173.43-7.95L173.43-7.95 174.03-7.45Q173.03-5.1 171.21-4.13 169.38-3.15 167.73-3.15L167.73-3.15Q167.08-3.15 166.48-3.28 165.88-3.4 165.33-3.65L165.33-3.65Q163.63-1.4 161.61 0.1 159.58 1.6 157.68 1.6ZM165.03-5.75L165.03-5.75Q166.28-7.6 167.11-9.63 167.93-11.65 167.93-13.45L167.93-13.45Q167.93-14.9 167.51-15.58 167.08-16.25 166.43-16.25L166.43-16.25Q165.43-16.25 164.38-14.8 163.33-13.35 163.33-11.15L163.33-11.15Q163.33-9.7 163.76-8.22 164.18-6.75 165.03-5.75ZM169.33 14L169.33 14Q168.93 14 168.56 13.58 168.18 13.15 167.98 12.68 167.78 12.2 167.78 12.1L167.78 12.1Q168.48 9.65 169.16 7.73 169.83 5.8 170.51 3.78 171.18 1.75 171.83-0.98 172.48-3.7 173.18-7.75 173.88-11.8 174.58-17.8L174.58-17.8Q174.63-18.25 174.78-18.45 174.93-18.65 175.53-18.65L175.53-18.65Q176.83-18.65 177.38-17.93 177.93-17.2 177.93-16.35L177.93-16.35Q177.93-15.65 177.63-13.85 177.33-12.05 176.78-9.6L176.78-9.6Q177.63-11.25 178.91-12.95 180.18-14.65 181.83-15.8 183.48-16.95 185.43-16.95L185.43-16.95Q187.63-16.95 189.06-15.38 190.48-13.8 190.48-11.25L190.48-11.25Q190.48-9.3 189.61-7.13 188.73-4.95 187.16-3.03 185.58-1.1 183.43 0.1 181.28 1.3 178.68 1.3L178.68 1.3Q177.38 1.3 176.58 1 175.78 0.7 175.78 0.4L175.78 0.4Q175.78 0.2 176.16 0.18 176.53 0.15 177.03 0.15L177.03 0.15Q179.03 0.15 180.86-0.83 182.68-1.8 184.13-3.4 185.58-5 186.41-6.95 187.23-8.9 187.23-10.8L187.23-10.8Q187.23-12.4 186.56-13.53 185.88-14.65 184.38-14.65L184.38-14.65Q183.08-14.65 181.81-13.83 180.53-13 179.41-11.73 178.28-10.45 177.41-9.08 176.53-7.7 176.08-6.6L176.08-6.6Q175.18-2.85 174.28 0.63 173.38 4.1 172.56 6.93 171.73 9.75 171.06 11.55 170.38 13.35 169.93 13.75L169.93 13.75Q169.68 14 169.33 14Z" opacity="1" transform="matrix(1,0,0,1,0,0)" fill="#ffffff" class="undefined-text-0" data-fill-palette-color="quaternary" id="text-0"></path></svg></g></svg></g></svg></g></svg></g><g transform="matrix(1,0,0,1,37.43903654564408,0)"><svg viewBox="0 0 117.12192690871184 70.87179487179488" height="70.87179487179488" width="117.12192690871184"><g><svg xmlns="http://www.w3.org/2000/svg" xmlns:xlink="http://www.w3.org/1999/xlink" version="1.1" x="0" y="0" viewBox="0.0015072822570800781 0 156.9959259033203 95" enable-background="new 0 0 157 95" xml:space="preserve" height="70.87179487179488" width="117.12192690871184" class="icon-icon-0" data-fill-palette-color="quaternary" id="icon-0"><g fill="#ffffff" data-fill-palette-color="quaternary"><path d="M155.8 79.9c-0.9-1.2-23.4-28.7-72.4-45v-4.7c0-5.7 11.1-7.2 11.1-17.7C94.6 4.3 86.9 0 79.8 0c-8.6 0-13.3 5.3-13.3 5.3-1.2 1.2-2.6 4.1-0.7 6.9 2 2.8 5.8 1.5 6.8 0.6 0 0 3-2.7 6.1-2.7 2.4 0 4.6 1.6 4.6 3.8 0 5.4-9.9 6.9-9.9 15.5v5.6C24.4 51.2 2 78.7 1.1 79.9c-0.9 1.1-1.3 2.6-1 4 0.3 1.4 1.2 2.6 2.5 3.3C13.2 93 51.1 95 80.2 95c13.6 0 59-0.5 74.1-7.6 1.4-0.6 2.2-1.9 2.6-3.3C157.2 82.7 156.8 81.1 155.8 79.9zM80.2 85.2c-28 0-53.9-1.8-66.5-4.5 8.9-8.7 30-26.1 64.8-37.1 34.8 11.1 55.8 28.4 64.8 37.1C130.9 83.5 107.6 85.2 80.2 85.2z" fill="#ffffff" data-fill-palette-color="quaternary"></path></g></svg></g></svg></g><g></g></svg></g></svg></g></svg></g></svg></g><defs></defs></svg><rect width="320" height="360" fill="none" stroke="none" visibility="hidden"></rect></g></svg></g></svg>